# WaveFront *.obj file (generated by Autodesk ATF)

mtllib Casa primer modelo.mtl

g Cuerpo1

v 10.041538 0.000000 0.000000
v 9.841538 0.000000 0.000000
v 9.841538 0.000000 4.000000
v 10.041538 0.000000 4.000000
v 10.041538 -9.200000 0.000000
v 10.041538 -9.200000 4.000000
v 9.841538 -9.200000 0.000000
v 9.841538 -9.200000 4.000000
vt 0.000000 0.000000 0.000000
vt 0.200000 0.000000 0.000000
vt -0.000000 4.000000 0.000000
vt 0.200000 4.000000 0.000000
vt 0.000000 0.000000 0.000000
vt 9.200000 0.000000 0.000000
vt 0.000000 4.000000 0.000000
vt 9.200000 4.000000 0.000000
vt 0.000000 0.000000 0.000000
vt 0.200000 0.000000 0.000000
vt 0.000000 4.000000 0.000000
vt 0.200000 4.000000 0.000000
vt -0.000000 0.000000 0.000000
vt 9.200000 0.000000 0.000000
vt -0.000000 4.000000 0.000000
vt 9.200000 4.000000 0.000000
vt -0.100000 -4.600000 0.000000
vt 0.100000 -4.600000 0.000000
vt -0.100000 4.600000 0.000000
vt 0.100000 4.600000 0.000000
vt 0.100000 4.600000 0.000000
vt -0.100000 4.600000 0.000000
vt 0.100000 -4.600000 0.000000
vt -0.100000 -4.600000 0.000000
vn 0.000000 1.000000 -0.000000
vn 0.000000 1.000000 -0.000000
vn 0.000000 1.000000 -0.000000
vn 0.000000 1.000000 -0.000000
vn 1.000000 -0.000000 0.000000
vn 1.000000 -0.000000 0.000000
vn 1.000000 -0.000000 0.000000
vn 1.000000 -0.000000 0.000000
vn 0.000000 -1.000000 0.000000
vn 0.000000 -1.000000 0.000000
vn 0.000000 -1.000000 0.000000
vn 0.000000 -1.000000 0.000000
vn -1.000000 0.000000 0.000000
vn -1.000000 0.000000 0.000000
vn -1.000000 0.000000 0.000000
vn -1.000000 0.000000 0.000000
vn 0.000000 0.000000 1.000000
vn 0.000000 0.000000 1.000000
vn 0.000000 0.000000 1.000000
vn 0.000000 0.000000 1.000000
vn -0.000000 0.000000 -1.000000
vn -0.000000 0.000000 -1.000000
vn -0.000000 0.000000 -1.000000
vn -0.000000 0.000000 -1.000000
usemtl Acero_-_Satinado
f 1/1/1 2/2/2 4/3/3
f 4/3/3 2/2/2 3/4/4
f 5/5/5 1/6/6 6/7/7
f 6/7/7 1/6/6 4/8/8
f 7/9/9 5/10/10 8/11/11
f 8/11/11 5/10/10 6/12/12
f 2/13/13 7/14/14 3/15/15
f 3/15/15 7/14/14 8/16/16
f 8/17/17 6/18/18 3/19/19
f 3/19/19 6/18/18 4/20/20
f 2/21/21 1/22/22 7/23/23
f 7/23/23 1/22/22 5/24/24
g Cuerpo2

v 7.479880 0.000000 1.019300
v 8.479880 0.000000 1.019300
v 8.479880 0.200000 1.019300
v 7.479880 0.200000 1.019300
v 7.479880 0.000000 3.519300
v 7.479880 0.200000 3.519300
v 8.479880 0.000000 3.519300
v 8.479880 0.200000 3.519300
v 1.479880 0.000000 1.019300
v 2.479880 0.000000 1.019300
v 2.479880 0.200000 1.019300
v 1.479880 0.200000 1.019300
v 1.479880 0.000000 3.519300
v 1.479880 0.200000 3.519300
v 2.479880 0.000000 3.519300
v 2.479880 0.200000 3.519300
v 5.479880 0.000000 1.019300
v 6.479880 0.000000 1.019300
v 6.479880 0.200000 1.019300
v 5.479880 0.200000 1.019300
v 5.479880 0.000000 3.519300
v 5.479880 0.200000 3.519300
v 6.479880 0.000000 3.519300
v 6.479880 0.200000 3.519300
v 3.479880 0.000000 1.019300
v 4.479880 0.000000 1.019300
v 4.479880 0.200000 1.019300
v 3.479880 0.200000 1.019300
v 3.479880 0.000000 3.519300
v 3.479880 0.200000 3.519300
v 4.479880 0.000000 3.519300
v 4.479880 0.200000 3.519300
v 10.016260 0.000000 0.000000
v 10.016260 0.200000 0.000000
v 10.016260 0.200000 4.000000
v 10.016260 0.000000 4.000000
v -0.983740 0.000000 0.000000
v -0.983740 0.000000 4.000000
v -0.983740 0.200000 0.000000
v -0.983740 0.200000 4.000000
vt 0.000000 7.700000 0.000000
vt -1.000000 7.700000 0.000000
vt 0.000000 7.500000 0.000000
vt -1.000000 7.500000 0.000000
vt -0.000000 7.700000 0.000000
vt -2.500000 7.700000 0.000000
vt -0.000000 7.500000 0.000000
vt -2.500000 7.500000 0.000000
vt -0.000000 7.700000 0.000000
vt -1.000000 7.700000 0.000000
vt -0.000000 7.500000 0.000000
vt -1.000000 7.500000 0.000000
vt -0.000000 7.700000 0.000000
vt -2.500000 7.700000 0.000000
vt -0.000000 7.500000 0.000000
vt -2.500000 7.500000 0.000000
vt 0.000000 7.700000 0.000000
vt -1.000000 7.700000 0.000000
vt 0.000000 7.500000 0.000000
vt -1.000000 7.500000 0.000000
vt -0.000000 7.700000 0.000000
vt -2.500000 7.700000 0.000000
vt -0.000000 7.500000 0.000000
vt -2.500000 7.500000 0.000000
vt -0.000000 7.700000 0.000000
vt -1.000000 7.700000 0.000000
vt -0.000000 7.500000 0.000000
vt -1.000000 7.500000 0.000000
vt -0.000000 7.700000 0.000000
vt -2.500000 7.700000 0.000000
vt -0.000000 7.500000 0.000000
vt -2.500000 7.500000 0.000000
vt 0.000000 7.700000 0.000000
vt -1.000000 7.700000 0.000000
vt 0.000000 7.500000 0.000000
vt -1.000000 7.500000 0.000000
vt -0.000000 7.700000 0.000000
vt -2.500000 7.700000 0.000000
vt -0.000000 7.500000 0.000000
vt -2.500000 7.500000 0.000000
vt -0.000000 7.700000 0.000000
vt -1.000000 7.700000 0.000000
vt -0.000000 7.500000 0.000000
vt -1.000000 7.500000 0.000000
vt -0.000000 7.700000 0.000000
vt -2.500000 7.700000 0.000000
vt -0.000000 7.500000 0.000000
vt -2.500000 7.500000 0.000000
vt 0.000000 7.700000 0.000000
vt -1.000000 7.700000 0.000000
vt 0.000000 7.500000 0.000000
vt -1.000000 7.500000 0.000000
vt -0.000000 7.700000 0.000000
vt -2.500000 7.700000 0.000000
vt -0.000000 7.500000 0.000000
vt -2.500000 7.500000 0.000000
vt -0.000000 7.700000 0.000000
vt -1.000000 7.700000 0.000000
vt -0.000000 7.500000 0.000000
vt -1.000000 7.500000 0.000000
vt -0.000000 7.700000 0.000000
vt -2.500000 7.700000 0.000000
vt -0.000000 7.500000 0.000000
vt -2.500000 7.500000 0.000000
vt 0.000000 0.000000 0.000000
vt 0.200000 0.000000 0.000000
vt 0.000000 4.000000 0.000000
vt 0.200000 4.000000 0.000000
vt 9.463620 3.519300 0.000000
vt 11.000000 4.000000 0.000000
vt 8.463620 3.519300 0.000000
vt 7.463620 3.519300 0.000000
vt 8.463620 1.019300 0.000000
vt 7.463620 1.019300 0.000000
vt 11.000000 0.000000 0.000000
vt 6.463620 1.019300 0.000000
vt 5.463620 1.019300 0.000000
vt 5.463620 3.519300 0.000000
vt 6.463620 3.519300 0.000000
vt 9.463620 1.019300 0.000000
vt 2.463620 1.019300 0.000000
vt 2.463620 3.519300 0.000000
vt 0.000000 4.000000 0.000000
vt 3.463620 3.519300 0.000000
vt 4.463620 3.519300 0.000000
vt 4.463620 1.019300 0.000000
vt 3.463620 1.019300 0.000000
vt 0.000000 0.000000 0.000000
vt -0.000000 0.000000 0.000000
vt 0.200000 0.000000 0.000000
vt -0.000000 4.000000 0.000000
vt 0.200000 4.000000 0.000000
vt 1.536380 1.019300 0.000000
vt 1.536380 3.519300 0.000000
vt -0.000000 4.000000 0.000000
vt 2.536380 3.519300 0.000000
vt 3.536380 3.519300 0.000000
vt 3.536380 1.019300 0.000000
vt 2.536380 1.019300 0.000000
vt -0.000000 0.000000 0.000000
vt 8.536380 3.519300 0.000000
vt 11.000000 4.000000 0.000000
vt 7.536380 3.519300 0.000000
vt 6.536380 3.519300 0.000000
vt 7.536380 1.019300 0.000000
vt 6.536380 1.019300 0.000000
vt 11.000000 0.000000 0.000000
vt 5.536380 1.019300 0.000000
vt 4.536380 1.019300 0.000000
vt 8.536380 1.019300 0.000000
vt 4.536380 3.519300 0.000000
vt 5.536380 3.519300 0.000000
vt 5.500000 0.100000 0.000000
vt -5.500000 0.100000 0.000000
vt 5.500000 -0.100000 0.000000
vt -5.500000 -0.100000 0.000000
vt 5.500000 0.100000 0.000000
vt -5.500000 0.100000 0.000000
vt 5.500000 -0.100000 0.000000
vt -5.500000 -0.100000 0.000000
vn 0.000000 -0.000000 1.000000
vn 0.000000 -0.000000 1.000000
vn 0.000000 -0.000000 1.000000
vn 0.000000 -0.000000 1.000000
vn 1.000000 -0.000000 -0.000000
vn 1.000000 -0.000000 -0.000000
vn 1.000000 -0.000000 -0.000000
vn 1.000000 -0.000000 -0.000000
vn 0.000000 -0.000000 -1.000000
vn 0.000000 -0.000000 -1.000000
vn 0.000000 -0.000000 -1.000000
vn 0.000000 -0.000000 -1.000000
vn -1.000000 0.000000 -0.000000
vn -1.000000 0.000000 -0.000000
vn -1.000000 0.000000 -0.000000
vn -1.000000 0.000000 -0.000000
vn 0.000000 -0.000000 1.000000
vn 0.000000 -0.000000 1.000000
vn 0.000000 -0.000000 1.000000
vn 0.000000 -0.000000 1.000000
vn 1.000000 -0.000000 -0.000000
vn 1.000000 -0.000000 -0.000000
vn 1.000000 -0.000000 -0.000000
vn 1.000000 -0.000000 -0.000000
vn 0.000000 -0.000000 -1.000000
vn 0.000000 -0.000000 -1.000000
vn 0.000000 -0.000000 -1.000000
vn 0.000000 -0.000000 -1.000000
vn -1.000000 0.000000 -0.000000
vn -1.000000 0.000000 -0.000000
vn -1.000000 0.000000 -0.000000
vn -1.000000 0.000000 -0.000000
vn 0.000000 -0.000000 1.000000
vn 0.000000 -0.000000 1.000000
vn 0.000000 -0.000000 1.000000
vn 0.000000 -0.000000 1.000000
vn 1.000000 -0.000000 -0.000000
vn 1.000000 -0.000000 -0.000000
vn 1.000000 -0.000000 -0.000000
vn 1.000000 -0.000000 -0.000000
vn 0.000000 -0.000000 -1.000000
vn 0.000000 -0.000000 -1.000000
vn 0.000000 -0.000000 -1.000000
vn 0.000000 -0.000000 -1.000000
vn -1.000000 0.000000 -0.000000
vn -1.000000 0.000000 -0.000000
vn -1.000000 0.000000 -0.000000
vn -1.000000 0.000000 -0.000000
vn 0.000000 -0.000000 1.000000
vn 0.000000 -0.000000 1.000000
vn 0.000000 -0.000000 1.000000
vn 0.000000 -0.000000 1.000000
vn 1.000000 -0.000000 -0.000000
vn 1.000000 -0.000000 -0.000000
vn 1.000000 -0.000000 -0.000000
vn 1.000000 -0.000000 -0.000000
vn 0.000000 -0.000000 -1.000000
vn 0.000000 -0.000000 -1.000000
vn 0.000000 -0.000000 -1.000000
vn 0.000000 -0.000000 -1.000000
vn -1.000000 0.000000 -0.000000
vn -1.000000 0.000000 -0.000000
vn -1.000000 0.000000 -0.000000
vn -1.000000 0.000000 -0.000000
vn 1.000000 0.000000 -0.000000
vn 1.000000 0.000000 -0.000000
vn 1.000000 0.000000 -0.000000
vn 1.000000 0.000000 -0.000000
vn 0.000000 -1.000000 0.000000
vn 0.000000 -1.000000 0.000000
vn 0.000000 -1.000000 0.000000
vn 0.000000 -1.000000 0.000000
vn 0.000000 -1.000000 0.000000
vn 0.000000 -1.000000 0.000000
vn 0.000000 -1.000000 0.000000
vn 0.000000 -1.000000 0.000000
vn 0.000000 -1.000000 0.000000
vn 0.000000 -1.000000 0.000000
vn 0.000000 -1.000000 0.000000
vn 0.000000 -1.000000 0.000000
vn 0.000000 -1.000000 0.000000
vn 0.000000 -1.000000 0.000000
vn 0.000000 -1.000000 0.000000
vn 0.000000 -1.000000 0.000000
vn 0.000000 -1.000000 0.000000
vn 0.000000 -1.000000 0.000000
vn 0.000000 -1.000000 0.000000
vn 0.000000 -1.000000 0.000000
vn -1.000000 0.000000 0.000000
vn -1.000000 0.000000 0.000000
vn -1.000000 0.000000 0.000000
vn -1.000000 0.000000 0.000000
vn -0.000000 1.000000 0.000000
vn -0.000000 1.000000 0.000000
vn -0.000000 1.000000 0.000000
vn -0.000000 1.000000 0.000000
vn -0.000000 1.000000 0.000000
vn -0.000000 1.000000 0.000000
vn -0.000000 1.000000 0.000000
vn -0.000000 1.000000 0.000000
vn -0.000000 1.000000 0.000000
vn -0.000000 1.000000 0.000000
vn -0.000000 1.000000 0.000000
vn -0.000000 1.000000 0.000000
vn -0.000000 1.000000 0.000000
vn -0.000000 1.000000 0.000000
vn -0.000000 1.000000 0.000000
vn -0.000000 1.000000 0.000000
vn -0.000000 1.000000 0.000000
vn -0.000000 1.000000 0.000000
vn -0.000000 1.000000 0.000000
vn -0.000000 1.000000 0.000000
vn 0.000000 0.000000 1.000000
vn 0.000000 0.000000 1.000000
vn 0.000000 0.000000 1.000000
vn 0.000000 0.000000 1.000000
vn -0.000000 0.000000 -1.000000
vn -0.000000 0.000000 -1.000000
vn -0.000000 0.000000 -1.000000
vn -0.000000 0.000000 -1.000000
f 9/25/25 10/26/26 12/27/27
f 12/27/27 10/26/26 11/28/28
f 13/29/29 9/30/30 14/31/31
f 14/31/31 9/30/30 12/32/32
f 15/33/33 13/34/34 16/35/35
f 16/35/35 13/34/34 14/36/36
f 10/37/37 15/38/38 11/39/39
f 11/39/39 15/38/38 16/40/40
f 17/41/41 18/42/42 20/43/43
f 20/43/43 18/42/42 19/44/44
f 21/45/45 17/46/46 22/47/47
f 22/47/47 17/46/46 20/48/48
f 23/49/49 21/50/50 24/51/51
f 24/51/51 21/50/50 22/52/52
f 18/53/53 23/54/54 19/55/55
f 19/55/55 23/54/54 24/56/56
f 25/57/57 26/58/58 28/59/59
f 28/59/59 26/58/58 27/60/60
f 29/61/61 25/62/62 30/63/63
f 30/63/63 25/62/62 28/64/64
f 31/65/65 29/66/66 32/67/67
f 32/67/67 29/66/66 30/68/68
f 26/69/69 31/70/70 27/71/71
f 27/71/71 31/70/70 32/72/72
f 33/73/73 34/74/74 36/75/75
f 36/75/75 34/74/74 35/76/76
f 37/77/77 33/78/78 38/79/79
f 38/79/79 33/78/78 36/80/80
f 39/81/81 37/82/82 40/83/83
f 40/83/83 37/82/82 38/84/84
f 34/85/85 39/86/86 35/87/87
f 35/87/87 39/86/86 40/88/88
f 41/89/89 42/90/90 44/91/91
f 44/91/91 42/90/90 43/92/92
f 15/93/93 44/94/94 13/95/95
f 13/95/95 44/94/94 31/96/96
f 13/95/95 31/96/96 9/97/97
f 9/97/97 31/96/96 26/98/98
f 9/97/97 26/98/98 41/99/99
f 41/99/99 26/98/98 25/100/100
f 41/99/99 25/100/100 34/101/101
f 34/101/101 25/100/100 39/102/102
f 39/102/102 25/100/100 29/103/103
f 39/102/102 29/103/103 44/94/94
f 44/94/94 29/103/103 31/96/96
f 15/93/93 10/104/104 44/94/94
f 44/94/94 10/104/104 41/99/99
f 41/99/99 10/104/104 9/97/97
f 17/105/105 21/106/106 46/107/107
f 46/107/107 21/106/106 23/108/108
f 46/107/107 23/108/108 37/109/109
f 37/109/109 23/108/108 33/110/110
f 33/110/110 23/108/108 18/111/111
f 33/110/110 18/111/111 45/112/112
f 45/112/112 18/111/111 17/105/105
f 45/112/112 17/105/105 46/107/107
f 37/109/109 39/102/102 46/107/107
f 46/107/107 39/102/102 44/94/94
f 41/99/99 34/101/101 45/112/112
f 45/112/112 34/101/101 33/110/110
f 47/113/113 45/114/114 48/115/115
f 48/115/115 45/114/114 46/116/116
f 11/117/117 16/118/118 43/119/119
f 43/119/119 16/118/118 14/120/120
f 43/119/119 14/120/120 32/121/121
f 32/121/121 14/120/120 27/122/122
f 27/122/122 14/120/120 12/123/123
f 27/122/122 12/123/123 42/124/124
f 42/124/124 12/123/123 11/117/117
f 42/124/124 11/117/117 43/119/119
f 22/125/125 48/126/126 24/127/127
f 24/127/127 48/126/126 38/128/128
f 24/127/127 38/128/128 19/129/129
f 19/129/129 38/128/128 36/130/130
f 19/129/129 36/130/130 47/131/131
f 47/131/131 36/130/130 35/132/132
f 47/131/131 35/132/132 42/124/124
f 42/124/124 35/132/132 28/133/133
f 42/124/124 28/133/133 27/122/122
f 22/125/125 20/134/134 48/126/126
f 48/126/126 20/134/134 47/131/131
f 47/131/131 20/134/134 19/129/129
f 32/121/121 30/135/135 43/119/119
f 43/119/119 30/135/135 40/136/136
f 43/119/119 40/136/136 48/126/126
f 48/126/126 40/136/136 38/128/128
f 40/136/136 30/135/135 35/132/132
f 35/132/132 30/135/135 28/133/133
f 43/137/137 48/138/138 44/139/139
f 44/139/139 48/138/138 46/140/140
f 47/141/141 42/142/142 45/143/143
f 45/143/143 42/142/142 41/144/144
g Cuerpo3

v 3.000000 -9.200000 0.000000
v 3.000000 -3.000000 0.000000
v 3.000000 -3.000000 4.000000
v 3.000000 -9.200000 4.000000
v 2.800000 -9.200000 0.000000
v 2.800000 -9.200000 4.000000
v 2.800000 -3.000000 0.000000
v 2.800000 -3.000000 4.000000
vt 0.000000 0.000000 0.000000
vt 6.200000 0.000000 0.000000
vt 0.000000 4.000000 0.000000
vt 6.200000 4.000000 0.000000
vt 0.000000 0.000000 0.000000
vt 0.200000 0.000000 0.000000
vt 0.000000 4.000000 0.000000
vt 0.200000 4.000000 0.000000
vt 0.000000 0.000000 0.000000
vt 6.200000 0.000000 0.000000
vt 0.000000 4.000000 0.000000
vt 6.200000 4.000000 0.000000
vt 0.000000 0.000000 0.000000
vt 0.200000 0.000000 0.000000
vt 0.000000 4.000000 0.000000
vt 0.200000 4.000000 0.000000
vt 0.100000 3.100000 0.000000
vt -0.100000 3.100000 0.000000
vt 0.100000 -3.100000 0.000000
vt -0.100000 -3.100000 0.000000
vt 0.100000 3.100000 0.000000
vt -0.100000 3.100000 0.000000
vt 0.100000 -3.100000 0.000000
vt -0.100000 -3.100000 0.000000
vn 1.000000 0.000000 0.000000
vn 1.000000 0.000000 0.000000
vn 1.000000 0.000000 0.000000
vn 1.000000 0.000000 0.000000
vn 0.000000 -1.000000 0.000000
vn 0.000000 -1.000000 0.000000
vn 0.000000 -1.000000 0.000000
vn 0.000000 -1.000000 0.000000
vn -1.000000 0.000000 0.000000
vn -1.000000 0.000000 0.000000
vn -1.000000 0.000000 0.000000
vn -1.000000 0.000000 0.000000
vn 0.000000 1.000000 -0.000000
vn 0.000000 1.000000 -0.000000
vn 0.000000 1.000000 -0.000000
vn 0.000000 1.000000 -0.000000
vn 0.000000 0.000000 1.000000
vn 0.000000 0.000000 1.000000
vn 0.000000 0.000000 1.000000
vn 0.000000 0.000000 1.000000
vn -0.000000 0.000000 -1.000000
vn -0.000000 0.000000 -1.000000
vn -0.000000 0.000000 -1.000000
vn -0.000000 0.000000 -1.000000
f 49/145/145 50/146/146 52/147/147
f 52/147/147 50/146/146 51/148/148
f 53/149/149 49/150/150 54/151/151
f 54/151/151 49/150/150 52/152/152
f 55/153/153 53/154/154 56/155/155
f 56/155/155 53/154/154 54/156/156
f 50/157/157 55/158/158 51/159/159
f 51/159/159 55/158/158 56/160/160
f 51/161/161 56/162/162 52/163/163
f 52/163/163 56/162/162 54/164/164
f 55/165/165 50/166/166 53/167/167
f 53/167/167 50/166/166 49/168/168
g Cuerpo4

v 2.800000 -9.200000 0.000000
v 2.800000 -9.400000 0.000000
v 2.800000 -9.400000 4.000000
v 2.800000 -9.200000 4.000000
v 10.041453 -9.200000 0.000000
v 10.041453 -9.200000 4.000000
v 10.041453 -9.400000 0.000000
v 10.041453 -9.400000 4.000000
vt -0.000000 0.000000 0.000000
vt 0.200000 0.000000 0.000000
vt -0.000000 4.000000 0.000000
vt 0.200000 4.000000 0.000000
vt -0.000000 0.000000 0.000000
vt 7.241453 0.000000 0.000000
vt -0.000000 4.000000 0.000000
vt 7.241453 4.000000 0.000000
vt 0.000000 0.000000 0.000000
vt 0.200000 0.000000 0.000000
vt 0.000000 4.000000 0.000000
vt 0.200000 4.000000 0.000000
vt 0.000000 0.000000 0.000000
vt 7.241453 0.000000 0.000000
vt 0.000000 4.000000 0.000000
vt 7.241453 4.000000 0.000000
vt -3.620727 -0.100000 0.000000
vt 3.620727 -0.100000 0.000000
vt -3.620727 0.100000 0.000000
vt 3.620727 0.100000 0.000000
vt -3.620727 -0.100000 0.000000
vt 3.620727 -0.100000 0.000000
vt -3.620727 0.100000 0.000000
vt 3.620727 0.100000 0.000000
vn -1.000000 0.000000 0.000000
vn -1.000000 0.000000 0.000000
vn -1.000000 0.000000 0.000000
vn -1.000000 0.000000 0.000000
vn 0.000000 1.000000 0.000000
vn 0.000000 1.000000 0.000000
vn 0.000000 1.000000 0.000000
vn 0.000000 1.000000 0.000000
vn 1.000000 0.000000 -0.000000
vn 1.000000 0.000000 -0.000000
vn 1.000000 0.000000 -0.000000
vn 1.000000 0.000000 -0.000000
vn 0.000000 -1.000000 0.000000
vn 0.000000 -1.000000 0.000000
vn 0.000000 -1.000000 0.000000
vn 0.000000 -1.000000 0.000000
vn 0.000000 0.000000 1.000000
vn 0.000000 0.000000 1.000000
vn 0.000000 0.000000 1.000000
vn 0.000000 0.000000 1.000000
vn -0.000000 0.000000 -1.000000
vn -0.000000 0.000000 -1.000000
vn -0.000000 0.000000 -1.000000
vn -0.000000 0.000000 -1.000000
f 57/169/169 58/170/170 60/171/171
f 60/171/171 58/170/170 59/172/172
f 61/173/173 57/174/174 62/175/175
f 62/175/175 57/174/174 60/176/176
f 63/177/177 61/178/178 64/179/179
f 64/179/179 61/178/178 62/180/180
f 58/181/181 63/182/182 59/183/183
f 59/183/183 63/182/182 64/184/184
f 59/185/185 64/186/186 60/187/187
f 60/187/187 64/186/186 62/188/188
f 63/189/189 58/190/190 61/191/191
f 61/191/191 58/190/190 57/192/192
g Cuerpo5

v 3.000000 -3.000000 0.000000
v 3.000000 -2.800000 0.000000
v 3.000000 -2.800000 4.000000
v 3.000000 -3.000000 4.000000
v -0.984000 -3.000000 0.000000
v -0.984000 -3.000000 4.000000
v -0.984000 -2.800000 0.000000
v -0.984000 -2.800000 4.000000
vt 0.000000 0.000000 0.000000
vt 0.200000 0.000000 0.000000
vt 0.000000 4.000000 0.000000
vt 0.200000 4.000000 0.000000
vt 0.000000 0.000000 0.000000
vt 3.984000 0.000000 0.000000
vt 0.000000 4.000000 0.000000
vt 3.984000 4.000000 0.000000
vt -0.000000 0.000000 0.000000
vt 0.200000 0.000000 0.000000
vt -0.000000 4.000000 0.000000
vt 0.200000 4.000000 0.000000
vt -0.000000 0.000000 0.000000
vt 3.984000 0.000000 0.000000
vt -0.000000 4.000000 0.000000
vt 3.984000 4.000000 0.000000
vt 1.992000 0.100000 0.000000
vt -1.992000 0.100000 0.000000
vt 1.992000 -0.100000 0.000000
vt -1.992000 -0.100000 0.000000
vt 1.992000 0.100000 0.000000
vt -1.992000 0.100000 0.000000
vt 1.992000 -0.100000 0.000000
vt -1.992000 -0.100000 0.000000
vn 1.000000 0.000000 -0.000000
vn 1.000000 0.000000 -0.000000
vn 1.000000 0.000000 -0.000000
vn 1.000000 0.000000 -0.000000
vn 0.000000 -1.000000 0.000000
vn 0.000000 -1.000000 0.000000
vn 0.000000 -1.000000 0.000000
vn 0.000000 -1.000000 0.000000
vn -1.000000 0.000000 0.000000
vn -1.000000 0.000000 0.000000
vn -1.000000 0.000000 0.000000
vn -1.000000 0.000000 0.000000
vn -0.000000 1.000000 0.000000
vn -0.000000 1.000000 0.000000
vn -0.000000 1.000000 0.000000
vn -0.000000 1.000000 0.000000
vn 0.000000 0.000000 1.000000
vn 0.000000 0.000000 1.000000
vn 0.000000 0.000000 1.000000
vn 0.000000 0.000000 1.000000
vn -0.000000 0.000000 -1.000000
vn -0.000000 0.000000 -1.000000
vn -0.000000 0.000000 -1.000000
vn -0.000000 0.000000 -1.000000
f 65/193/193 66/194/194 68/195/195
f 68/195/195 66/194/194 67/196/196
f 69/197/197 65/198/198 70/199/199
f 70/199/199 65/198/198 68/200/200
f 71/201/201 69/202/202 72/203/203
f 72/203/203 69/202/202 70/204/204
f 66/205/205 71/206/206 67/207/207
f 67/207/207 71/206/206 72/208/208
f 67/209/209 72/210/210 68/211/211
f 68/211/211 72/210/210 70/212/212
f 71/213/213 66/214/214 69/215/215
f 69/215/215 66/214/214 65/216/216
g Cuerpo6

v -1.000000 -2.500000 3.500000
v -1.000000 -2.500000 0.000000
v -1.200000 -2.500000 0.000000
v -1.200000 -2.500000 3.500000
v -1.000000 -0.500000 3.500000
v -1.200000 -0.500000 3.500000
v -1.000000 -0.500000 0.000000
v -1.200000 -0.500000 0.000000
v -1.200000 7.500000 0.000000
v -1.000000 7.500000 0.000000
v -1.000000 -3.000000 0.000000
v -1.200000 -3.000000 0.000000
v -1.000000 7.500000 4.000000
v -1.000000 -3.000000 4.000000
v -1.200000 -3.000000 4.000000
v -1.200000 7.500000 4.000000
vt 0.000000 0.200000 0.000000
vt -3.500000 0.200000 0.000000
vt 0.000000 0.000000 0.000000
vt -3.500000 0.000000 0.000000
vt 0.000000 0.200000 0.000000
vt -2.000000 0.200000 0.000000
vt 0.000000 0.000000 0.000000
vt -2.000000 0.000000 0.000000
vt -0.000000 0.200000 0.000000
vt -3.500000 0.200000 0.000000
vt -0.000000 0.000000 0.000000
vt -3.500000 0.000000 0.000000
vt -0.100000 -2.750000 0.000000
vt 0.100000 -2.750000 0.000000
vt -0.100000 5.250000 0.000000
vt 0.100000 5.250000 0.000000
vt 0.100000 -4.750000 0.000000
vt -0.100000 -4.750000 0.000000
vt 0.100000 -5.250000 0.000000
vt -0.100000 -5.250000 0.000000
vt 0.500000 0.000000 0.000000
vt 0.500000 3.500000 0.000000
vt 0.000000 0.000000 0.000000
vt 0.000000 4.000000 0.000000
vt 2.500000 3.500000 0.000000
vt 10.500000 4.000000 0.000000
vt 10.500000 0.000000 0.000000
vt 2.500000 0.000000 0.000000
vt 10.000000 0.000000 0.000000
vt 10.500000 0.000000 0.000000
vt 10.000000 3.500000 0.000000
vt 10.500000 4.000000 0.000000
vt 8.000000 3.500000 0.000000
vt 0.000000 4.000000 0.000000
vt 0.000000 0.000000 0.000000
vt 8.000000 0.000000 0.000000
vt 0.000000 0.000000 0.000000
vt 0.200000 0.000000 0.000000
vt 0.000000 4.000000 0.000000
vt 0.200000 4.000000 0.000000
vt 0.000000 0.000000 0.000000
vt 0.200000 0.000000 0.000000
vt 0.000000 4.000000 0.000000
vt 0.200000 4.000000 0.000000
vt -0.100000 -5.250000 0.000000
vt 0.100000 -5.250000 0.000000
vt -0.100000 5.250000 0.000000
vt 0.100000 5.250000 0.000000
vn -0.000000 1.000000 -0.000000
vn -0.000000 1.000000 -0.000000
vn -0.000000 1.000000 -0.000000
vn -0.000000 1.000000 -0.000000
vn -0.000000 -0.000000 -1.000000
vn -0.000000 -0.000000 -1.000000
vn -0.000000 -0.000000 -1.000000
vn -0.000000 -0.000000 -1.000000
vn 0.000000 -1.000000 -0.000000
vn 0.000000 -1.000000 -0.000000
vn 0.000000 -1.000000 -0.000000
vn 0.000000 -1.000000 -0.000000
vn -0.000000 0.000000 -1.000000
vn -0.000000 0.000000 -1.000000
vn -0.000000 0.000000 -1.000000
vn -0.000000 0.000000 -1.000000
vn -0.000000 0.000000 -1.000000
vn -0.000000 0.000000 -1.000000
vn -0.000000 0.000000 -1.000000
vn -0.000000 0.000000 -1.000000
vn 1.000000 0.000000 0.000000
vn 1.000000 0.000000 0.000000
vn 1.000000 0.000000 0.000000
vn 1.000000 0.000000 0.000000
vn 1.000000 0.000000 0.000000
vn 1.000000 0.000000 0.000000
vn 1.000000 0.000000 0.000000
vn 1.000000 0.000000 0.000000
vn -1.000000 0.000000 0.000000
vn -1.000000 0.000000 0.000000
vn -1.000000 0.000000 0.000000
vn -1.000000 0.000000 0.000000
vn -1.000000 0.000000 0.000000
vn -1.000000 0.000000 0.000000
vn -1.000000 0.000000 0.000000
vn -1.000000 0.000000 0.000000
vn 0.000000 1.000000 -0.000000
vn 0.000000 1.000000 -0.000000
vn 0.000000 1.000000 -0.000000
vn 0.000000 1.000000 -0.000000
vn 0.000000 -1.000000 0.000000
vn 0.000000 -1.000000 0.000000
vn 0.000000 -1.000000 0.000000
vn 0.000000 -1.000000 0.000000
vn 0.000000 0.000000 1.000000
vn 0.000000 0.000000 1.000000
vn 0.000000 0.000000 1.000000
vn 0.000000 0.000000 1.000000
f 73/217/217 74/218/218 76/219/219
f 76/219/219 74/218/218 75/220/220
f 77/221/221 73/222/222 78/223/223
f 78/223/223 73/222/222 76/224/224
f 79/225/225 77/226/226 80/227/227
f 80/227/227 77/226/226 78/228/228
f 79/229/229 80/230/230 82/231/231
f 82/231/231 80/230/230 81/232/232
f 75/233/233 74/234/234 84/235/235
f 84/235/235 74/234/234 83/236/236
f 74/237/237 73/238/238 83/239/239
f 83/239/239 73/238/238 86/240/240
f 86/240/240 73/238/238 77/241/241
f 86/240/240 77/241/241 85/242/242
f 85/242/242 77/241/241 82/243/243
f 82/243/243 77/241/241 79/244/244
f 75/245/245 84/246/246 76/247/247
f 76/247/247 84/246/246 87/248/248
f 76/247/247 87/248/248 78/249/249
f 78/249/249 87/248/248 88/250/250
f 78/249/249 88/250/250 81/251/251
f 81/251/251 80/252/252 78/249/249
f 82/253/253 81/254/254 85/255/255
f 85/255/255 81/254/254 88/256/256
f 84/257/257 83/258/258 87/259/259
f 87/259/259 83/258/258 86/260/260
f 87/261/261 86/262/262 88/263/263
f 88/263/263 86/262/262 85/264/264
g Cuerpo7

v -2.500000 7.500000 1.000000
v -2.500000 7.500000 3.000000
v -2.500000 7.700000 3.000000
v -2.500000 7.700000 1.000000
v -4.500000 7.500000 1.000000
v -4.500000 7.700000 1.000000
v -4.500000 7.500000 3.000000
v -4.500000 7.700000 3.000000
v -8.500000 7.500000 1.000000
v -6.382433 7.500000 1.000000
v -6.382433 7.700000 1.000000
v -8.500000 7.700000 1.000000
v -8.500000 7.500000 3.000000
v -8.500000 7.700000 3.000000
v -6.382433 7.500000 3.000000
v -6.382433 7.700000 3.000000
v -10.000000 7.700000 0.000000
v -10.000000 7.500000 0.000000
v -10.000000 7.500000 4.000000
v -10.000000 7.700000 4.000000
v -1.000000 7.700000 0.000000
v -1.000000 7.700000 4.000000
v -1.000000 7.500000 0.000000
v -1.000000 7.500000 4.000000
vt -0.000000 0.200000 0.000000
vt -2.000000 0.200000 0.000000
vt -0.000000 -0.000000 0.000000
vt -2.000000 0.000000 0.000000
vt 0.000000 0.200000 0.000000
vt -2.000000 0.200000 0.000000
vt -0.000000 0.000000 0.000000
vt -2.000000 0.000000 0.000000
vt 0.000000 0.200000 0.000000
vt -2.000000 0.200000 0.000000
vt -0.000000 -0.000000 0.000000
vt -2.000000 0.000000 0.000000
vt -2.000000 0.200000 0.000000
vt -2.000000 0.000000 0.000000
vt -0.000000 0.200000 0.000000
vt -0.000000 0.000000 0.000000
vt 0.000000 0.200000 0.000000
vt -2.117567 0.200000 0.000000
vt -0.000000 0.000000 0.000000
vt -2.117567 0.000000 0.000000
vt 0.000000 0.200000 0.000000
vt -2.000000 0.200000 0.000000
vt -0.000000 -0.000000 0.000000
vt -2.000000 0.000000 0.000000
vt -2.117567 0.200000 0.000000
vt -2.117567 0.000000 0.000000
vt -0.000000 0.200000 0.000000
vt 0.000000 0.000000 0.000000
vt -0.000000 0.200000 0.000000
vt -2.000000 0.200000 0.000000
vt -0.000000 -0.000000 0.000000
vt -2.000000 -0.000000 0.000000
vt 0.000000 0.000000 0.000000
vt 0.200000 0.000000 0.000000
vt 0.000000 4.000000 0.000000
vt 0.200000 4.000000 0.000000
vt 3.500000 1.000000 0.000000
vt 5.382433 1.000000 0.000000
vt 3.500000 3.000000 0.000000
vt 5.382433 3.000000 0.000000
vt 0.000000 4.000000 0.000000
vt 9.000000 4.000000 0.000000
vt 7.500000 3.000000 0.000000
vt 9.000000 0.000000 0.000000
vt 7.500000 1.000000 0.000000
vt 0.000000 0.000000 0.000000
vt 1.500000 1.000000 0.000000
vt 1.500000 3.000000 0.000000
vt 0.000000 0.000000 0.000000
vt 0.200000 0.000000 0.000000
vt 0.000000 4.000000 0.000000
vt 0.200000 4.000000 0.000000
vt 5.500000 3.000000 0.000000
vt 3.617567 3.000000 0.000000
vt 5.500000 1.000000 0.000000
vt 3.617567 1.000000 0.000000
vt 9.000000 0.000000 0.000000
vt 0.000000 0.000000 0.000000
vt 1.500000 1.000000 0.000000
vt 1.500000 3.000000 0.000000
vt 9.000000 4.000000 0.000000
vt 7.500000 3.000000 0.000000
vt 7.500000 1.000000 0.000000
vt 0.000000 4.000000 0.000000
vt -4.500000 -0.100000 0.000000
vt 4.500000 -0.100000 0.000000
vt -4.500000 0.100000 0.000000
vt 4.500000 0.100000 0.000000
vt 4.500000 -0.100000 0.000000
vt 4.500000 0.100000 0.000000
vt -4.500000 -0.100000 0.000000
vt -4.500000 0.100000 0.000000
vn -1.000000 0.000000 0.000000
vn -1.000000 0.000000 0.000000
vn -1.000000 0.000000 0.000000
vn -1.000000 0.000000 0.000000
vn -0.000000 0.000000 1.000000
vn -0.000000 0.000000 1.000000
vn -0.000000 0.000000 1.000000
vn -0.000000 0.000000 1.000000
vn 1.000000 -0.000000 -0.000000
vn 1.000000 -0.000000 -0.000000
vn 1.000000 -0.000000 -0.000000
vn 1.000000 -0.000000 -0.000000
vn -0.000000 -0.000000 -1.000000
vn -0.000000 -0.000000 -1.000000
vn -0.000000 -0.000000 -1.000000
vn -0.000000 -0.000000 -1.000000
vn 0.000000 -0.000000 1.000000
vn 0.000000 -0.000000 1.000000
vn 0.000000 -0.000000 1.000000
vn 0.000000 -0.000000 1.000000
vn 1.000000 -0.000000 -0.000000
vn 1.000000 -0.000000 -0.000000
vn 1.000000 -0.000000 -0.000000
vn 1.000000 -0.000000 -0.000000
vn 0.000000 -0.000000 -1.000000
vn 0.000000 -0.000000 -1.000000
vn 0.000000 -0.000000 -1.000000
vn 0.000000 -0.000000 -1.000000
vn -1.000000 0.000000 -0.000000
vn -1.000000 0.000000 -0.000000
vn -1.000000 0.000000 -0.000000
vn -1.000000 0.000000 -0.000000
vn -1.000000 0.000000 0.000000
vn -1.000000 0.000000 0.000000
vn -1.000000 0.000000 0.000000
vn -1.000000 0.000000 0.000000
vn 0.000000 1.000000 -0.000000
vn 0.000000 1.000000 -0.000000
vn 0.000000 1.000000 -0.000000
vn 0.000000 1.000000 -0.000000
vn 0.000000 1.000000 -0.000000
vn 0.000000 1.000000 -0.000000
vn 0.000000 1.000000 -0.000000
vn 0.000000 1.000000 -0.000000
vn 0.000000 1.000000 -0.000000
vn 0.000000 1.000000 -0.000000
vn 0.000000 1.000000 -0.000000
vn 0.000000 1.000000 -0.000000
vn 1.000000 0.000000 0.000000
vn 1.000000 0.000000 0.000000
vn 1.000000 0.000000 0.000000
vn 1.000000 0.000000 0.000000
vn 0.000000 -1.000000 0.000000
vn 0.000000 -1.000000 0.000000
vn 0.000000 -1.000000 0.000000
vn 0.000000 -1.000000 0.000000
vn 0.000000 -1.000000 0.000000
vn 0.000000 -1.000000 0.000000
vn 0.000000 -1.000000 0.000000
vn 0.000000 -1.000000 0.000000
vn 0.000000 -1.000000 0.000000
vn 0.000000 -1.000000 0.000000
vn 0.000000 -1.000000 0.000000
vn 0.000000 -1.000000 0.000000
vn 0.000000 0.000000 1.000000
vn 0.000000 0.000000 1.000000
vn 0.000000 0.000000 1.000000
vn 0.000000 0.000000 1.000000
vn -0.000000 0.000000 -1.000000
vn -0.000000 0.000000 -1.000000
vn -0.000000 0.000000 -1.000000
vn -0.000000 0.000000 -1.000000
f 89/265/265 90/266/266 92/267/267
f 92/267/267 90/266/266 91/268/268
f 93/269/269 89/270/270 94/271/271
f 94/271/271 89/270/270 92/272/272
f 95/273/273 93/274/274 96/275/275
f 96/275/275 93/274/274 94/276/276
f 95/277/277 96/278/278 90/279/279
f 90/279/279 96/278/278 91/280/280
f 97/281/281 98/282/282 100/283/283
f 100/283/283 98/282/282 99/284/284
f 101/285/285 97/286/286 102/287/287
f 102/287/287 97/286/286 100/288/288
f 101/289/289 102/290/290 103/291/291
f 103/291/291 102/290/290 104/292/292
f 98/293/293 103/294/294 99/295/295
f 99/295/295 103/294/294 104/296/296
f 105/297/297 106/298/298 108/299/299
f 108/299/299 106/298/298 107/300/300
f 94/301/301 99/302/302 96/303/303
f 96/303/303 99/302/302 104/304/304
f 96/303/303 104/304/304 110/305/305
f 110/305/305 104/304/304 108/306/306
f 108/306/306 104/304/304 102/307/307
f 108/306/306 102/307/307 105/308/308
f 105/308/308 102/307/307 100/309/309
f 105/308/308 100/309/309 99/302/302
f 99/302/302 94/301/301 109/310/310
f 109/310/310 94/301/301 92/311/311
f 109/310/310 92/311/311 91/312/312
f 109/310/310 91/312/312 110/305/305
f 110/305/305 91/312/312 96/303/303
f 109/310/310 105/308/308 99/302/302
f 111/313/313 109/314/314 112/315/315
f 112/315/315 109/314/314 110/316/316
f 95/317/317 103/318/318 93/319/319
f 93/319/319 103/318/318 98/320/320
f 93/319/319 98/320/320 111/321/321
f 111/321/321 98/320/320 106/322/322
f 106/322/322 98/320/320 97/323/323
f 106/322/322 97/323/323 101/324/324
f 103/318/318 95/317/317 112/325/325
f 112/325/325 95/317/317 90/326/326
f 112/325/325 90/326/326 111/321/321
f 111/321/321 90/326/326 89/327/327
f 111/321/321 89/327/327 93/319/319
f 106/322/322 101/324/324 107/328/328
f 107/328/328 101/324/324 103/318/318
f 107/328/328 103/318/318 112/325/325
f 107/329/329 112/330/330 108/331/331
f 108/331/331 112/330/330 110/332/332
f 106/333/333 105/334/334 111/335/335
f 111/335/335 105/334/334 109/336/336
g Cuerpo8

v -10.000000 7.700000 0.000000
v -10.200000 7.700000 0.000000
v -10.200000 7.700000 4.000000
v -10.000000 7.700000 4.000000
v -10.000000 0.000000 0.000000
v -10.000000 0.000000 4.000000
v -10.200000 0.000000 0.000000
v -10.200000 0.000000 4.000000
vt -0.000000 0.000000 0.000000
vt 0.200000 0.000000 0.000000
vt -0.000000 4.000000 0.000000
vt 0.200000 4.000000 0.000000
vt 0.000000 0.000000 0.000000
vt 7.700000 0.000000 0.000000
vt 0.000000 4.000000 0.000000
vt 7.700000 4.000000 0.000000
vt 0.000000 0.000000 0.000000
vt 0.200000 0.000000 0.000000
vt 0.000000 4.000000 0.000000
vt 0.200000 4.000000 0.000000
vt -0.000000 0.000000 0.000000
vt 7.700000 0.000000 0.000000
vt -0.000000 4.000000 0.000000
vt 7.700000 4.000000 0.000000
vt -0.100000 -3.850000 0.000000
vt 0.100000 -3.850000 0.000000
vt -0.100000 3.850000 0.000000
vt 0.100000 3.850000 0.000000
vt 0.100000 3.850000 0.000000
vt -0.100000 3.850000 0.000000
vt 0.100000 -3.850000 0.000000
vt -0.100000 -3.850000 0.000000
vn 0.000000 1.000000 0.000000
vn 0.000000 1.000000 0.000000
vn 0.000000 1.000000 0.000000
vn 0.000000 1.000000 0.000000
vn 1.000000 0.000000 -0.000000
vn 1.000000 0.000000 -0.000000
vn 1.000000 0.000000 -0.000000
vn 1.000000 0.000000 -0.000000
vn 0.000000 -1.000000 0.000000
vn 0.000000 -1.000000 0.000000
vn 0.000000 -1.000000 0.000000
vn 0.000000 -1.000000 0.000000
vn -1.000000 0.000000 0.000000
vn -1.000000 0.000000 0.000000
vn -1.000000 0.000000 0.000000
vn -1.000000 0.000000 0.000000
vn 0.000000 0.000000 1.000000
vn 0.000000 0.000000 1.000000
vn 0.000000 0.000000 1.000000
vn 0.000000 0.000000 1.000000
vn -0.000000 0.000000 -1.000000
vn -0.000000 0.000000 -1.000000
vn -0.000000 0.000000 -1.000000
vn -0.000000 0.000000 -1.000000
f 113/337/337 114/338/338 116/339/339
f 116/339/339 114/338/338 115/340/340
f 117/341/341 113/342/342 118/343/343
f 118/343/343 113/342/342 116/344/344
f 119/345/345 117/346/346 120/347/347
f 120/347/347 117/346/346 118/348/348
f 114/349/349 119/350/350 115/351/351
f 115/351/351 119/350/350 120/352/352
f 120/353/353 118/354/354 115/355/355
f 115/355/355 118/354/354 116/356/356
f 114/357/357 113/358/358 119/359/359
f 119/359/359 113/358/358 117/360/360
g Cuerpo9

v -12.500000 -0.200000 0.000000
v -10.000000 -0.200000 0.000000
v -10.000000 -0.200000 4.000000
v -12.500000 -0.200000 4.000000
v -12.500000 0.000000 0.000000
v -12.500000 0.000000 4.000000
v -10.000000 0.000000 0.000000
v -10.000000 0.000000 4.000000
vt 0.000000 0.000000 0.000000
vt 2.500000 0.000000 0.000000
vt 0.000000 4.000000 0.000000
vt 2.500000 4.000000 0.000000
vt 0.000000 0.000000 0.000000
vt 0.200000 0.000000 0.000000
vt 0.000000 4.000000 0.000000
vt 0.200000 4.000000 0.000000
vt 0.000000 0.000000 0.000000
vt 2.500000 0.000000 0.000000
vt 0.000000 4.000000 0.000000
vt 2.500000 4.000000 0.000000
vt 0.000000 0.000000 0.000000
vt 0.200000 0.000000 0.000000
vt 0.000000 4.000000 0.000000
vt 0.200000 4.000000 0.000000
vt 1.250000 0.100000 0.000000
vt -1.250000 0.100000 0.000000
vt 1.250000 -0.100000 0.000000
vt -1.250000 -0.100000 0.000000
vt -1.250000 0.100000 0.000000
vt -1.250000 -0.100000 0.000000
vt 1.250000 0.100000 0.000000
vt 1.250000 -0.100000 0.000000
vn 0.000000 -1.000000 0.000000
vn 0.000000 -1.000000 0.000000
vn 0.000000 -1.000000 0.000000
vn 0.000000 -1.000000 0.000000
vn -1.000000 0.000000 0.000000
vn -1.000000 0.000000 0.000000
vn -1.000000 0.000000 0.000000
vn -1.000000 0.000000 0.000000
vn 0.000000 1.000000 -0.000000
vn 0.000000 1.000000 -0.000000
vn 0.000000 1.000000 -0.000000
vn 0.000000 1.000000 -0.000000
vn 1.000000 -0.000001 0.000000
vn 1.000000 -0.000001 0.000000
vn 1.000000 -0.000001 0.000000
vn 1.000000 -0.000001 0.000000
vn 0.000000 0.000000 1.000000
vn 0.000000 0.000000 1.000000
vn 0.000000 0.000000 1.000000
vn 0.000000 0.000000 1.000000
vn -0.000000 -0.000000 -1.000000
vn -0.000000 -0.000000 -1.000000
vn -0.000000 -0.000000 -1.000000
vn -0.000000 -0.000000 -1.000000
f 121/361/361 122/362/362 124/363/363
f 124/363/363 122/362/362 123/364/364
f 125/365/365 121/366/366 126/367/367
f 126/367/367 121/366/366 124/368/368
f 127/369/369 125/370/370 128/371/371
f 128/371/371 125/370/370 126/372/372
f 122/373/373 127/374/374 123/375/375
f 123/375/375 127/374/374 128/376/376
f 128/377/377 126/378/378 123/379/379
f 123/379/379 126/378/378 124/380/380
f 127/381/381 122/382/382 125/383/383
f 125/383/383 122/382/382 121/384/384
g Cuerpo10

v -12.500000 -0.500000 0.000000
v -12.500000 -0.500000 3.000000
v -12.700000 -0.500000 3.000000
v -12.700000 -0.500000 0.000000
v -12.500000 -2.500000 3.000000
v -12.500000 -2.500000 0.000000
v -12.700000 -2.500000 0.000000
v -12.700000 -2.500000 3.000000
v -12.500000 -3.000000 0.000000
v -12.700000 -3.000000 0.000000
v -12.700000 0.000000 0.000000
v -12.500000 0.000000 0.000000
v -12.700000 -3.000000 4.000000
v -12.700000 0.000000 4.000000
v -12.500000 0.000000 4.000000
v -12.500000 -3.000000 4.000000
vt -0.000000 0.200000 0.000000
vt -3.000000 0.200000 0.000000
vt -0.000000 0.000000 0.000000
vt -3.000000 0.000000 0.000000
vt -0.000000 0.200000 0.000000
vt -3.000000 0.200000 0.000000
vt -0.000000 0.000000 0.000000
vt -3.000000 0.000000 0.000000
vt -0.000000 0.200000 0.000000
vt -2.000000 0.200000 0.000000
vt -0.000000 0.000000 0.000000
vt -2.000000 0.000000 0.000000
vt 0.100000 -1.000000 0.000000
vt -0.100000 -1.000000 0.000000
vt 0.100000 -1.500000 0.000000
vt -0.100000 -1.500000 0.000000
vt -0.100000 1.000000 0.000000
vt 0.100000 1.000000 0.000000
vt -0.100000 1.500000 0.000000
vt 0.100000 1.500000 0.000000
vt 0.500000 0.000000 0.000000
vt 0.500000 3.000000 0.000000
vt -0.000000 0.000000 0.000000
vt -0.000000 4.000000 0.000000
vt 2.500000 3.000000 0.000000
vt 3.000000 4.000000 0.000000
vt 3.000000 0.000000 0.000000
vt 2.500000 0.000000 0.000000
vt -0.000000 0.000000 0.000000
vt 0.200000 0.000000 0.000000
vt -0.000000 4.000000 0.000000
vt 0.200000 4.000000 0.000000
vt 2.500000 0.000000 0.000000
vt 3.000000 0.000000 0.000000
vt 2.500000 3.000000 0.000000
vt 3.000000 4.000000 0.000000
vt 0.000000 4.000000 0.000000
vt 0.500000 3.000000 0.000000
vt 0.000000 0.000000 0.000000
vt 0.500000 0.000000 0.000000
vt 0.000000 0.000000 0.000000
vt 0.200000 0.000000 0.000000
vt 0.000000 4.000000 0.000000
vt 0.200000 4.000000 0.000000
vt -0.100000 -1.500000 0.000000
vt 0.100000 -1.500000 0.000000
vt -0.100000 1.500000 0.000000
vt 0.100000 1.500000 0.000000
vn -0.000000 -1.000000 -0.000000
vn -0.000000 -1.000000 -0.000000
vn -0.000000 -1.000000 -0.000000
vn -0.000000 -1.000000 -0.000000
vn -0.000000 1.000000 -0.000000
vn -0.000000 1.000000 -0.000000
vn -0.000000 1.000000 -0.000000
vn -0.000000 1.000000 -0.000000
vn 0.000000 -0.000000 -1.000000
vn 0.000000 -0.000000 -1.000000
vn 0.000000 -0.000000 -1.000000
vn 0.000000 -0.000000 -1.000000
vn -0.000000 0.000000 -1.000000
vn -0.000000 0.000000 -1.000000
vn -0.000000 0.000000 -1.000000
vn -0.000000 0.000000 -1.000000
vn -0.000000 0.000000 -1.000000
vn -0.000000 0.000000 -1.000000
vn -0.000000 0.000000 -1.000000
vn -0.000000 0.000000 -1.000000
vn -1.000000 0.000000 0.000000
vn -1.000000 0.000000 0.000000
vn -1.000000 0.000000 0.000000
vn -1.000000 0.000000 0.000000
vn -1.000000 0.000000 0.000000
vn -1.000000 0.000000 0.000000
vn -1.000000 0.000000 0.000000
vn -1.000000 0.000000 0.000000
vn 0.000000 1.000000 0.000000
vn 0.000000 1.000000 0.000000
vn 0.000000 1.000000 0.000000
vn 0.000000 1.000000 0.000000
vn 1.000000 0.000000 -0.000000
vn 1.000000 0.000000 -0.000000
vn 1.000000 0.000000 -0.000000
vn 1.000000 0.000000 -0.000000
vn 1.000000 0.000000 -0.000000
vn 1.000000 0.000000 -0.000000
vn 1.000000 0.000000 -0.000000
vn 1.000000 0.000000 -0.000000
vn 0.000000 -1.000000 0.000000
vn 0.000000 -1.000000 0.000000
vn 0.000000 -1.000000 0.000000
vn 0.000000 -1.000000 0.000000
vn 0.000000 0.000000 1.000000
vn 0.000000 0.000000 1.000000
vn 0.000000 0.000000 1.000000
vn 0.000000 0.000000 1.000000
f 129/385/385 130/386/386 132/387/387
f 132/387/387 130/386/386 131/388/388
f 133/389/389 134/390/390 136/391/391
f 136/391/391 134/390/390 135/392/392
f 130/393/393 133/394/394 131/395/395
f 131/395/395 133/394/394 136/396/396
f 135/397/397 134/398/398 138/399/399
f 138/399/399 134/398/398 137/400/400
f 129/401/401 132/402/402 140/403/403
f 140/403/403 132/402/402 139/404/404
f 132/405/405 131/406/406 139/407/407
f 139/407/407 131/406/406 142/408/408
f 142/408/408 131/406/406 136/409/409
f 142/408/408 136/409/409 141/410/410
f 141/410/410 136/409/409 138/411/411
f 138/411/411 136/409/409 135/412/412
f 140/413/413 139/414/414 143/415/415
f 143/415/415 139/414/414 142/416/416
f 129/417/417 140/418/418 130/419/419
f 130/419/419 140/418/418 143/420/420
f 130/419/419 143/420/420 144/421/421
f 130/419/419 144/421/421 133/422/422
f 133/422/422 144/421/421 137/423/423
f 133/422/422 137/423/423 134/424/424
f 138/425/425 137/426/426 141/427/427
f 141/427/427 137/426/426 144/428/428
f 141/429/429 144/430/430 142/431/431
f 142/431/431 144/430/430 143/432/432
g Cuerpo11

v -12.500000 -2.800000 0.000000
v -12.500000 -3.000000 0.000000
v -12.500000 -3.000000 4.000000
v -12.500000 -2.800000 4.000000
v -1.200000 -2.800000 0.000000
v -1.200000 -2.800000 4.000000
v -1.200000 -3.000000 0.000000
v -1.200000 -3.000000 4.000000
vt -0.000000 0.000000 0.000000
vt 0.200000 0.000000 0.000000
vt -0.000000 4.000000 0.000000
vt 0.200000 4.000000 0.000000
vt -0.000000 0.000000 0.000000
vt 11.300000 0.000000 0.000000
vt -0.000000 4.000000 0.000000
vt 11.300000 4.000000 0.000000
vt 0.000000 0.000000 0.000000
vt 0.200000 0.000000 0.000000
vt 0.000000 4.000000 0.000000
vt 0.200000 4.000000 0.000000
vt 0.000000 0.000000 0.000000
vt 11.300000 0.000000 0.000000
vt 0.000000 4.000000 0.000000
vt 11.300000 4.000000 0.000000
vt -5.650000 -0.100000 0.000000
vt 5.650000 -0.100000 0.000000
vt -5.650000 0.100000 0.000000
vt 5.650000 0.100000 0.000000
vt -5.650000 -0.100000 0.000000
vt 5.650000 -0.100000 0.000000
vt -5.650000 0.100000 0.000000
vt 5.650000 0.100000 0.000000
vn -1.000000 0.000000 0.000000
vn -1.000000 0.000000 0.000000
vn -1.000000 0.000000 0.000000
vn -1.000000 0.000000 0.000000
vn 0.000000 1.000000 0.000000
vn 0.000000 1.000000 0.000000
vn 0.000000 1.000000 0.000000
vn 0.000000 1.000000 0.000000
vn 1.000000 0.000000 -0.000000
vn 1.000000 0.000000 -0.000000
vn 1.000000 0.000000 -0.000000
vn 1.000000 0.000000 -0.000000
vn 0.000000 -1.000000 0.000000
vn 0.000000 -1.000000 0.000000
vn 0.000000 -1.000000 0.000000
vn 0.000000 -1.000000 0.000000
vn 0.000000 0.000000 1.000000
vn 0.000000 0.000000 1.000000
vn 0.000000 0.000000 1.000000
vn 0.000000 0.000000 1.000000
vn -0.000000 -0.000000 -1.000000
vn -0.000000 -0.000000 -1.000000
vn -0.000000 -0.000000 -1.000000
vn -0.000000 -0.000000 -1.000000
f 145/433/433 146/434/434 148/435/435
f 148/435/435 146/434/434 147/436/436
f 149/437/437 145/438/438 150/439/439
f 150/439/439 145/438/438 148/440/440
f 151/441/441 149/442/442 152/443/443
f 152/443/443 149/442/442 150/444/444
f 146/445/445 151/446/446 147/447/447
f 147/447/447 151/446/446 152/448/448
f 147/449/449 152/450/450 148/451/451
f 148/451/451 152/450/450 150/452/452
f 151/453/453 146/454/454 149/455/455
f 149/455/455 146/454/454 145/456/456
g Cuerpo12

v -1.000000 7.700000 0.000000
v -1.000000 0.200000 0.000000
v -1.000000 0.200000 -0.200000
v -1.000000 7.700000 -0.200000
v -10.200000 7.700000 0.000000
v -10.200000 7.700000 -0.200000
v -10.200000 0.000000 0.000000
v -10.200000 0.000000 -0.200000
v -12.700000 0.000000 0.000000
v -12.700000 0.000000 -0.200000
v -12.700000 -3.000000 0.000000
v -12.700000 -3.000000 -0.200000
v 2.800000 -3.000000 0.000000
v -4.950000 -3.000000 0.000000
v -4.950000 -3.000000 -0.200000
v 2.800000 -3.000000 -0.200000
v 2.800000 -9.400000 0.000000
v 2.800000 -9.400000 -0.200000
v 10.040000 -9.400000 0.000000
v 10.040000 -9.400000 -0.200000
v 10.000000 0.200000 0.000000
v 10.000000 0.200000 -0.200000
v -1.330000 -0.850000 0.000000
v -1.330000 -0.850000 -0.200000
vt 0.000000 0.000000 0.000000
vt 7.500000 0.000000 0.000000
vt 0.000000 0.200000 0.000000
vt 7.500000 0.200000 0.000000
vt 0.000000 0.000000 0.000000
vt 9.200000 0.000000 0.000000
vt 0.000000 0.200000 0.000000
vt 9.200000 0.200000 0.000000
vt 0.000000 0.000000 0.000000
vt 7.700000 0.000000 0.000000
vt 0.000000 0.200000 0.000000
vt 7.700000 0.200000 0.000000
vt 0.000000 0.000000 0.000000
vt 2.500000 0.000000 0.000000
vt 0.000000 0.200000 0.000000
vt 2.500000 0.200000 0.000000
vt 0.000000 0.000000 0.000000
vt 3.000000 0.000000 0.000000
vt 0.000000 0.200000 0.000000
vt 3.000000 0.200000 0.000000
vt 0.000000 0.000000 0.000000
vt 7.750000 0.000000 0.000000
vt 0.000000 0.200000 0.000000
vt 7.750000 0.200000 0.000000
vt 15.500000 0.000000 0.000000
vt 15.500000 0.200000 0.000000
vt 0.000000 0.000000 0.000000
vt 6.400000 0.000000 0.000000
vt 0.000000 0.200000 0.000000
vt 6.400000 0.200000 0.000000
vt 0.000000 0.000000 0.000000
vt 7.240000 0.000000 0.000000
vt 0.000000 0.200000 0.000000
vt 7.240000 0.200000 0.000000
vt 0.000000 0.000000 0.000000
vt 9.600083 0.000000 0.000000
vt 0.000000 0.200000 0.000000
vt 9.600083 0.200000 0.000000
vt 0.000000 0.000000 0.000000
vt 11.000000 0.000000 0.000000
vt 0.000000 0.200000 0.000000
vt 11.000000 0.200000 0.000000
vt 11.370000 -8.550000 0.000000
vt 11.330000 1.050000 0.000000
vt 4.130000 -2.150000 0.000000
vt 0.330000 1.050000 0.000000
vt -0.000000 0.000000 0.000000
vt -8.870000 0.850000 0.000000
vt -3.620000 -2.150000 0.000000
vt -11.370000 -2.150000 0.000000
vt -11.370000 0.850000 0.000000
vt 0.330000 8.550000 0.000000
vt -8.870000 8.550000 0.000000
vt 4.130000 -8.550000 0.000000
vt -11.330000 1.050000 0.000000
vt -4.130000 -2.150000 0.000000
vt -0.330000 1.050000 0.000000
vt 0.000000 0.000000 0.000000
vt 8.870000 0.850000 0.000000
vt 3.620000 -2.150000 0.000000
vt 11.370000 -2.150000 0.000000
vt -11.370000 -8.550000 0.000000
vt -4.130000 -8.550000 0.000000
vt 11.370000 0.850000 0.000000
vt 8.870000 8.550000 0.000000
vt -0.330000 8.550000 0.000000
vn 1.000000 0.000000 0.000000
vn 1.000000 0.000000 0.000000
vn 1.000000 0.000000 0.000000
vn 1.000000 0.000000 0.000000
vn -0.000000 1.000000 0.000000
vn -0.000000 1.000000 0.000000
vn -0.000000 1.000000 0.000000
vn -0.000000 1.000000 0.000000
vn -1.000000 0.000000 0.000000
vn -1.000000 0.000000 0.000000
vn -1.000000 0.000000 0.000000
vn -1.000000 0.000000 0.000000
vn -0.000000 1.000000 0.000000
vn -0.000000 1.000000 0.000000
vn -0.000000 1.000000 0.000000
vn -0.000000 1.000000 0.000000
vn -1.000000 0.000000 0.000000
vn -1.000000 0.000000 0.000000
vn -1.000000 0.000000 0.000000
vn -1.000000 0.000000 0.000000
vn -0.000000 -1.000000 -0.000000
vn -0.000000 -1.000000 -0.000000
vn -0.000000 -1.000000 -0.000000
vn -0.000000 -1.000000 -0.000000
vn -0.000000 -1.000000 -0.000000
vn -0.000000 -1.000000 -0.000000
vn -1.000000 0.000000 0.000000
vn -1.000000 0.000000 0.000000
vn -1.000000 0.000000 0.000000
vn -1.000000 0.000000 0.000000
vn -0.000000 -1.000000 -0.000000
vn -0.000000 -1.000000 -0.000000
vn -0.000000 -1.000000 -0.000000
vn -0.000000 -1.000000 -0.000000
vn 0.999991 0.004167 0.000000
vn 0.999991 0.004167 0.000000
vn 0.999991 0.004167 0.000000
vn 0.999991 0.004167 0.000000
vn -0.000000 1.000000 0.000000
vn -0.000000 1.000000 0.000000
vn -0.000000 1.000000 0.000000
vn -0.000000 1.000000 0.000000
vn 0.000000 -0.000000 1.000000
vn 0.000000 -0.000000 1.000000
vn 0.000000 -0.000000 1.000000
vn 0.000000 -0.000000 1.000000
vn 0.000000 -0.000000 1.000000
vn 0.000000 -0.000000 1.000000
vn 0.000000 -0.000000 1.000000
vn 0.000000 -0.000000 1.000000
vn 0.000000 -0.000000 1.000000
vn 0.000000 -0.000000 1.000000
vn 0.000000 -0.000000 1.000000
vn 0.000000 -0.000000 1.000000
vn 0.000000 0.000000 -1.000000
vn 0.000000 0.000000 -1.000000
vn 0.000000 0.000000 -1.000000
vn 0.000000 0.000000 -1.000000
vn 0.000000 0.000000 -1.000000
vn 0.000000 0.000000 -1.000000
vn 0.000000 0.000000 -1.000000
vn 0.000000 0.000000 -1.000000
vn 0.000000 0.000000 -1.000000
vn 0.000000 0.000000 -1.000000
vn 0.000000 0.000000 -1.000000
vn 0.000000 0.000000 -1.000000
f 153/457/457 154/458/458 156/459/459
f 156/459/459 154/458/458 155/460/460
f 157/461/461 153/462/462 158/463/463
f 158/463/463 153/462/462 156/464/464
f 159/465/465 157/466/466 160/467/467
f 160/467/467 157/466/466 158/468/468
f 161/469/469 159/470/470 162/471/471
f 162/471/471 159/470/470 160/472/472
f 163/473/473 161/474/474 164/475/475
f 164/475/475 161/474/474 162/476/476
f 165/477/477 166/478/478 168/479/479
f 168/479/479 166/478/478 167/480/480
f 167/480/480 166/478/478 163/481/481
f 167/480/480 163/481/481 164/482/482
f 169/483/483 165/484/484 170/485/485
f 170/485/485 165/484/484 168/486/486
f 171/487/487 169/488/488 172/489/489
f 172/489/489 169/488/488 170/490/490
f 173/491/491 171/492/492 174/493/493
f 174/493/493 171/492/492 172/494/494
f 154/495/495 173/496/496 155/497/497
f 155/497/497 173/496/496 174/498/498
f 171/499/499 173/500/500 165/501/501
f 165/501/501 173/500/500 154/502/502
f 165/501/501 154/502/502 175/503/503
f 175/503/503 154/502/502 159/504/504
f 175/503/503 159/504/504 166/505/505
f 166/505/505 159/504/504 163/506/506
f 163/506/506 159/504/504 161/507/507
f 153/508/508 157/509/509 154/502/502
f 154/502/502 157/509/509 159/504/504
f 166/505/505 165/501/501 175/503/503
f 165/501/501 169/510/510 171/499/499
f 174/511/511 168/512/512 155/513/513
f 155/513/513 168/512/512 176/514/514
f 155/513/513 176/514/514 160/515/515
f 160/515/515 176/514/514 167/516/516
f 160/515/515 167/516/516 164/517/517
f 174/511/511 172/518/518 168/512/512
f 168/512/512 172/518/518 170/519/519
f 168/512/512 167/516/516 176/514/514
f 164/517/517 162/520/520 160/515/515
f 160/515/515 158/521/521 155/513/513
f 155/513/513 158/521/521 156/522/522
g Cuerpo13

v -10.200000 7.700000 4.000000
v -10.200000 0.000000 4.000000
v -10.200000 0.000000 4.200000
v -10.200000 7.700000 4.200000
v -1.000000 7.700000 4.000000
v -1.000000 7.700000 4.200000
v -1.000000 0.200000 4.000000
v -1.000000 0.200000 4.200000
v 10.000000 0.200000 4.000000
v 10.000000 0.200000 4.200000
v 10.000000 -9.400000 4.000000
v 10.000000 -9.400000 4.200000
v 2.800000 -9.400000 4.000000
v 2.800000 -9.400000 4.200000
v 2.800000 -3.000000 4.000000
v 2.800000 -3.000000 4.200000
v -12.700000 -3.000000 4.000000
v -4.950000 -3.000000 4.000000
v -4.950000 -3.000000 4.200000
v -12.700000 -3.000000 4.200000
v -12.700000 0.000000 4.000000
v -12.700000 0.000000 4.200000
v -1.350000 -0.850000 4.200000
v -1.350000 -0.850000 4.000000
vt 0.000000 0.000000 0.000000
vt 7.700000 0.000000 0.000000
vt 0.000000 0.200000 0.000000
vt 7.700000 0.200000 0.000000
vt 0.000000 0.000000 0.000000
vt 9.200000 0.000000 0.000000
vt 0.000000 0.200000 0.000000
vt 9.200000 0.200000 0.000000
vt 0.000000 0.000000 0.000000
vt 7.500000 0.000000 0.000000
vt 0.000000 0.200000 0.000000
vt 7.500000 0.200000 0.000000
vt 0.000000 0.000000 0.000000
vt 11.000000 0.000000 0.000000
vt 0.000000 0.200000 0.000000
vt 11.000000 0.200000 0.000000
vt 0.000000 0.000000 0.000000
vt 9.600000 0.000000 0.000000
vt 0.000000 0.200000 0.000000
vt 9.600000 0.200000 0.000000
vt 0.000000 0.000000 0.000000
vt 7.200000 0.000000 0.000000
vt 0.000000 0.200000 0.000000
vt 7.200000 0.200000 0.000000
vt 0.000000 0.000000 0.000000
vt 6.400000 0.000000 0.000000
vt 0.000000 0.200000 0.000000
vt 6.400000 0.200000 0.000000
vt 0.000000 0.000000 0.000000
vt 7.750000 0.000000 0.000000
vt 0.000000 0.200000 0.000000
vt 7.750000 0.200000 0.000000
vt 15.500000 0.000000 0.000000
vt 15.500000 0.200000 0.000000
vt 0.000000 0.000000 0.000000
vt 3.000000 0.000000 0.000000
vt 0.000000 0.200000 0.000000
vt 3.000000 0.200000 0.000000
vt 0.000000 0.000000 0.000000
vt 2.500000 0.000000 0.000000
vt 0.000000 0.200000 0.000000
vt 2.500000 0.200000 0.000000
vt -11.350000 0.850000 0.000000
vt -11.350000 -2.150000 0.000000
vt -8.850000 0.850000 0.000000
vt -3.600000 -2.150000 0.000000
vt 0.000000 0.000000 0.000000
vt 4.150000 -2.150000 0.000000
vt 0.350000 1.050000 0.000000
vt 11.350000 1.050000 0.000000
vt 11.350000 -8.550000 0.000000
vt 4.150000 -8.550000 0.000000
vt 0.350000 8.550000 0.000000
vt -8.850000 8.550000 0.000000
vt 11.350000 0.850000 0.000000
vt 8.850000 0.850000 0.000000
vt 11.350000 -2.150000 0.000000
vt 3.600000 -2.150000 0.000000
vt 0.000000 0.000000 0.000000
vt -4.150000 -2.150000 0.000000
vt -0.350000 1.050000 0.000000
vt -11.350000 1.050000 0.000000
vt 8.850000 8.550000 0.000000
vt -0.350000 8.550000 0.000000
vt -11.350000 -8.550000 0.000000
vt -4.150000 -8.550000 0.000000
vn -1.000000 0.000000 0.000000
vn -1.000000 0.000000 0.000000
vn -1.000000 0.000000 0.000000
vn -1.000000 0.000000 0.000000
vn 0.000000 1.000000 -0.000000
vn 0.000000 1.000000 -0.000000
vn 0.000000 1.000000 -0.000000
vn 0.000000 1.000000 -0.000000
vn 1.000000 0.000000 0.000000
vn 1.000000 0.000000 0.000000
vn 1.000000 0.000000 0.000000
vn 1.000000 0.000000 0.000000
vn 0.000000 1.000000 -0.000000
vn 0.000000 1.000000 -0.000000
vn 0.000000 1.000000 -0.000000
vn 0.000000 1.000000 -0.000000
vn 1.000000 0.000000 0.000000
vn 1.000000 0.000000 0.000000
vn 1.000000 0.000000 0.000000
vn 1.000000 0.000000 0.000000
vn 0.000000 -1.000000 0.000000
vn 0.000000 -1.000000 0.000000
vn 0.000000 -1.000000 0.000000
vn 0.000000 -1.000000 0.000000
vn -1.000000 0.000000 0.000000
vn -1.000000 0.000000 0.000000
vn -1.000000 0.000000 0.000000
vn -1.000000 0.000000 0.000000
vn 0.000000 -1.000000 0.000000
vn 0.000000 -1.000000 0.000000
vn 0.000000 -1.000000 0.000000
vn 0.000000 -1.000000 0.000000
vn 0.000000 -1.000000 0.000000
vn 0.000000 -1.000000 0.000000
vn -1.000000 0.000000 0.000000
vn -1.000000 0.000000 0.000000
vn -1.000000 0.000000 0.000000
vn -1.000000 0.000000 0.000000
vn 0.000000 1.000000 -0.000000
vn 0.000000 1.000000 -0.000000
vn 0.000000 1.000000 -0.000000
vn 0.000000 1.000000 -0.000000
vn 0.000000 0.000000 1.000000
vn 0.000000 0.000000 1.000000
vn 0.000000 0.000000 1.000000
vn 0.000000 0.000000 1.000000
vn 0.000000 0.000000 1.000000
vn 0.000000 0.000000 1.000000
vn 0.000000 0.000000 1.000000
vn 0.000000 0.000000 1.000000
vn 0.000000 0.000000 1.000000
vn 0.000000 0.000000 1.000000
vn 0.000000 0.000000 1.000000
vn 0.000000 0.000000 1.000000
vn -0.000000 -0.000000 -1.000000
vn -0.000000 -0.000000 -1.000000
vn -0.000000 -0.000000 -1.000000
vn -0.000000 -0.000000 -1.000000
vn -0.000000 -0.000000 -1.000000
vn -0.000000 -0.000000 -1.000000
vn -0.000000 -0.000000 -1.000000
vn -0.000000 -0.000000 -1.000000
vn -0.000000 -0.000000 -1.000000
vn -0.000000 -0.000000 -1.000000
vn -0.000000 -0.000000 -1.000000
vn -0.000000 -0.000000 -1.000000
f 177/523/523 178/524/524 180/525/525
f 180/525/525 178/524/524 179/526/526
f 181/527/527 177/528/528 182/529/529
f 182/529/529 177/528/528 180/530/530
f 183/531/531 181/532/532 184/533/533
f 184/533/533 181/532/532 182/534/534
f 185/535/535 183/536/536 186/537/537
f 186/537/537 183/536/536 184/538/538
f 187/539/539 185/540/540 188/541/541
f 188/541/541 185/540/540 186/542/542
f 189/543/543 187/544/544 190/545/545
f 190/545/545 187/544/544 188/546/546
f 191/547/547 189/548/548 192/549/549
f 192/549/549 189/548/548 190/550/550
f 193/551/551 194/552/552 196/553/553
f 196/553/553 194/552/552 195/554/554
f 195/554/554 194/552/552 191/555/555
f 195/554/554 191/555/555 192/556/556
f 197/557/557 193/558/558 198/559/559
f 198/559/559 193/558/558 196/560/560
f 178/561/561 197/562/562 179/563/563
f 179/563/563 197/562/562 198/564/564
f 198/565/565 196/566/566 179/567/567
f 179/567/567 196/566/566 195/568/568
f 179/567/567 195/568/568 199/569/569
f 199/569/569 195/568/568 192/570/570
f 199/569/569 192/570/570 184/571/571
f 184/571/571 192/570/570 186/572/572
f 186/572/572 192/570/570 188/573/573
f 188/573/573 192/570/570 190/574/574
f 182/575/575 180/576/576 184/571/571
f 184/571/571 180/576/576 179/567/567
f 184/571/571 179/567/567 199/569/569
f 197/577/577 178/578/578 193/579/579
f 193/579/579 178/578/578 194/580/580
f 194/580/580 178/578/578 200/581/581
f 194/580/580 200/581/581 191/582/582
f 191/582/582 200/581/581 183/583/583
f 191/582/582 183/583/583 185/584/584
f 200/581/581 178/578/578 183/583/583
f 183/583/583 178/578/578 177/585/585
f 183/583/583 177/585/585 181/586/586
f 185/584/584 187/587/587 191/582/582
f 191/582/582 187/587/587 189/588/588
g Cuerpo14

v 9.847547 -5.714286 4.000000
v 9.847547 -6.214286 4.000000
v 9.847547 -6.214286 3.700000
v 9.847547 -5.714286 3.700000
v 3.000000 -5.714286 4.000000
v 3.000000 -5.714286 3.700000
v 3.000000 -6.214286 4.000000
v 3.000000 -6.214286 3.700000
vt -0.000000 0.000000 0.000000
vt 0.500000 0.000000 0.000000
vt 0.000000 0.300000 0.000000
vt 0.500000 0.300000 0.000000
vt 0.000000 0.000000 0.000000
vt 6.847547 0.000000 0.000000
vt 0.000000 0.300000 0.000000
vt 6.847547 0.300000 0.000000
vt 0.000000 0.000000 0.000000
vt 0.500000 0.000000 0.000000
vt 0.000000 0.300000 0.000000
vt 0.500000 0.300000 0.000000
vt -0.000000 0.000000 0.000000
vt 6.847547 0.000000 0.000000
vt 0.000000 0.300000 0.000000
vt 6.847547 0.300000 0.000000
vt -3.423774 -0.250000 0.000000
vt 3.423774 -0.250000 0.000000
vt -3.423774 0.250000 0.000000
vt 3.423774 0.250000 0.000000
vt 3.423774 0.250000 0.000000
vt -3.423774 0.250000 0.000000
vt 3.423774 -0.250000 0.000000
vt -3.423774 -0.250000 0.000000
vn 1.000000 -0.000000 0.000000
vn 1.000000 -0.000000 0.000000
vn 1.000000 -0.000000 0.000000
vn 1.000000 -0.000000 0.000000
vn 0.000000 1.000000 0.000000
vn 0.000000 1.000000 0.000000
vn 0.000000 1.000000 0.000000
vn 0.000000 1.000000 0.000000
vn -1.000000 -0.000000 -0.000000
vn -1.000000 -0.000000 -0.000000
vn -1.000000 -0.000000 -0.000000
vn -1.000000 -0.000000 -0.000000
vn 0.000000 -1.000000 0.000000
vn 0.000000 -1.000000 0.000000
vn 0.000000 -1.000000 0.000000
vn 0.000000 -1.000000 0.000000
vn 0.000000 0.000000 -1.000000
vn 0.000000 0.000000 -1.000000
vn 0.000000 0.000000 -1.000000
vn 0.000000 0.000000 -1.000000
vn -0.000000 -0.000000 1.000000
vn -0.000000 -0.000000 1.000000
vn -0.000000 -0.000000 1.000000
vn -0.000000 -0.000000 1.000000
f 201/589/589 202/590/590 204/591/591
f 204/591/591 202/590/590 203/592/592
f 205/593/593 201/594/594 206/595/595
f 206/595/595 201/594/594 204/596/596
f 207/597/597 205/598/598 208/599/599
f 208/599/599 205/598/598 206/600/600
f 202/601/601 207/602/602 203/603/603
f 203/603/603 207/602/602 208/604/604
f 203/605/605 208/606/606 204/607/607
f 204/607/607 208/606/606 206/608/608
f 207/609/609 202/610/610 205/611/611
f 205/611/611 202/610/610 201/612/612
g Cuerpo15

v 9.847547 -1.142857 4.000000
v 9.847547 -1.642857 4.000000
v 9.847547 -1.642857 3.700000
v 9.847547 -1.142857 3.700000
v -1.000000 -1.142857 4.000000
v -1.000000 -1.142857 3.700000
v -1.000000 -1.642857 4.000000
v -1.000000 -1.642857 3.700000
vt -0.000000 0.000000 0.000000
vt 0.500000 0.000000 0.000000
vt 0.000000 0.300000 0.000000
vt 0.500000 0.300000 0.000000
vt 0.000000 0.000000 0.000000
vt 10.847547 0.000000 0.000000
vt 0.000000 0.300000 0.000000
vt 10.847547 0.300000 0.000000
vt 0.000000 0.000000 0.000000
vt 0.500000 0.000000 0.000000
vt 0.000000 0.300000 0.000000
vt 0.500000 0.300000 0.000000
vt 0.000000 0.000000 0.000000
vt 10.847547 0.000000 0.000000
vt 0.000000 0.300000 0.000000
vt 10.847547 0.300000 0.000000
vt -5.423774 -0.250000 0.000000
vt 5.423774 -0.250000 0.000000
vt -5.423774 0.250000 0.000000
vt 5.423774 0.250000 0.000000
vt 5.423774 0.250000 0.000000
vt -5.423774 0.250000 0.000000
vt 5.423774 -0.250000 0.000000
vt -5.423774 -0.250000 0.000000
vn 1.000000 -0.000000 0.000000
vn 1.000000 -0.000000 0.000000
vn 1.000000 -0.000000 0.000000
vn 1.000000 -0.000000 0.000000
vn 0.000000 1.000000 0.000000
vn 0.000000 1.000000 0.000000
vn 0.000000 1.000000 0.000000
vn 0.000000 1.000000 0.000000
vn -1.000000 0.000000 0.000000
vn -1.000000 0.000000 0.000000
vn -1.000000 0.000000 0.000000
vn -1.000000 0.000000 0.000000
vn -0.000000 -1.000000 -0.000000
vn -0.000000 -1.000000 -0.000000
vn -0.000000 -1.000000 -0.000000
vn -0.000000 -1.000000 -0.000000
vn 0.000000 0.000000 -1.000000
vn 0.000000 0.000000 -1.000000
vn 0.000000 0.000000 -1.000000
vn 0.000000 0.000000 -1.000000
vn -0.000000 -0.000000 1.000000
vn -0.000000 -0.000000 1.000000
vn -0.000000 -0.000000 1.000000
vn -0.000000 -0.000000 1.000000
f 209/613/613 210/614/614 212/615/615
f 212/615/615 210/614/614 211/616/616
f 213/617/617 209/618/618 214/619/619
f 214/619/619 209/618/618 212/620/620
f 215/621/621 213/622/622 216/623/623
f 216/623/623 213/622/622 214/624/624
f 210/625/625 215/626/626 211/627/627
f 211/627/627 215/626/626 216/628/628
f 211/629/629 216/630/630 212/631/631
f 212/631/631 216/630/630 214/632/632
f 215/633/633 210/634/634 213/635/635
f 213/635/635 210/634/634 209/636/636
g Cuerpo16

v -3.785714 7.500000 4.000000
v -3.785714 -2.800000 4.000000
v -3.785714 -2.800000 3.700000
v -3.785714 7.500000 3.700000
v -4.285714 7.500000 4.000000
v -4.285714 7.500000 3.700000
v -4.285714 -2.800000 4.000000
v -4.285714 -2.800000 3.700000
vt 0.000000 0.000000 0.000000
vt 10.300000 0.000000 0.000000
vt 0.000000 0.300000 0.000000
vt 10.300000 0.300000 0.000000
vt 0.000000 0.000000 0.000000
vt 0.500000 0.000000 0.000000
vt 0.000000 0.300000 0.000000
vt 0.500000 0.300000 0.000000
vt 0.000000 0.000000 0.000000
vt 10.300000 0.000000 0.000000
vt 0.000000 0.300000 0.000000
vt 10.300000 0.300000 0.000000
vt 0.000000 0.000000 0.000000
vt 0.500000 0.000000 0.000000
vt 0.000000 0.300000 0.000000
vt 0.500000 0.300000 0.000000
vt -0.250000 -5.150000 0.000000
vt 0.250000 -5.150000 0.000000
vt -0.250000 5.150000 0.000000
vt 0.250000 5.150000 0.000000
vt 0.250000 5.150000 0.000000
vt -0.250000 5.150000 0.000000
vt 0.250000 -5.150000 0.000000
vt -0.250000 -5.150000 0.000000
vn 1.000000 0.000000 0.000000
vn 1.000000 0.000000 0.000000
vn 1.000000 0.000000 0.000000
vn 1.000000 0.000000 0.000000
vn -0.000000 1.000000 0.000000
vn -0.000000 1.000000 0.000000
vn -0.000000 1.000000 0.000000
vn -0.000000 1.000000 0.000000
vn -1.000000 0.000000 0.000000
vn -1.000000 0.000000 0.000000
vn -1.000000 0.000000 0.000000
vn -1.000000 0.000000 0.000000
vn -0.000000 -1.000000 -0.000000
vn -0.000000 -1.000000 -0.000000
vn -0.000000 -1.000000 -0.000000
vn -0.000000 -1.000000 -0.000000
vn 0.000000 0.000000 -1.000000
vn 0.000000 0.000000 -1.000000
vn 0.000000 0.000000 -1.000000
vn 0.000000 0.000000 -1.000000
vn -0.000000 -0.000000 1.000000
vn -0.000000 -0.000000 1.000000
vn -0.000000 -0.000000 1.000000
vn -0.000000 -0.000000 1.000000
f 217/637/637 218/638/638 220/639/639
f 220/639/639 218/638/638 219/640/640
f 221/641/641 217/642/642 222/643/643
f 222/643/643 217/642/642 220/644/644
f 223/645/645 221/646/646 224/647/647
f 224/647/647 221/646/646 222/648/648
f 218/649/649 223/650/650 219/651/651
f 219/651/651 223/650/650 224/652/652
f 219/653/653 224/654/654 220/655/655
f 220/655/655 224/654/654 222/656/656
f 223/657/657 218/658/658 221/659/659
f 221/659/659 218/658/658 217/660/660
g Cuerpo17

v -8.357143 7.500000 4.000000
v -8.357143 -2.800000 4.000000
v -8.357143 -2.800000 3.700000
v -8.357143 7.500000 3.700000
v -8.857143 7.500000 4.000000
v -8.857143 7.500000 3.700000
v -8.857143 -2.800000 4.000000
v -8.857143 -2.800000 3.700000
vt 0.000000 0.000000 0.000000
vt 10.300000 0.000000 0.000000
vt 0.000000 0.300000 0.000000
vt 10.300000 0.300000 0.000000
vt 0.000000 0.000000 0.000000
vt 0.500000 0.000000 0.000000
vt 0.000000 0.300000 0.000000
vt 0.500000 0.300000 0.000000
vt 0.000000 0.000000 0.000000
vt 10.300000 0.000000 0.000000
vt 0.000000 0.300000 0.000000
vt 10.300000 0.300000 0.000000
vt 0.000000 0.000000 0.000000
vt 0.500000 0.000000 0.000000
vt 0.000000 0.300000 0.000000
vt 0.500000 0.300000 0.000000
vt -0.250000 -5.150000 0.000000
vt 0.250000 -5.150000 0.000000
vt -0.250000 5.150000 0.000000
vt 0.250000 5.150000 0.000000
vt 0.250000 5.150000 0.000000
vt -0.250000 5.150000 0.000000
vt 0.250000 -5.150000 0.000000
vt -0.250000 -5.150000 0.000000
vn 1.000000 0.000000 0.000000
vn 1.000000 0.000000 0.000000
vn 1.000000 0.000000 0.000000
vn 1.000000 0.000000 0.000000
vn -0.000000 1.000000 0.000000
vn -0.000000 1.000000 0.000000
vn -0.000000 1.000000 0.000000
vn -0.000000 1.000000 0.000000
vn -1.000000 0.000000 0.000000
vn -1.000000 0.000000 0.000000
vn -1.000000 0.000000 0.000000
vn -1.000000 0.000000 0.000000
vn -0.000000 -1.000000 -0.000000
vn -0.000000 -1.000000 -0.000000
vn -0.000000 -1.000000 -0.000000
vn -0.000000 -1.000000 -0.000000
vn 0.000000 0.000000 -1.000000
vn 0.000000 0.000000 -1.000000
vn 0.000000 0.000000 -1.000000
vn 0.000000 0.000000 -1.000000
vn -0.000000 -0.000000 1.000000
vn -0.000000 -0.000000 1.000000
vn -0.000000 -0.000000 1.000000
vn -0.000000 -0.000000 1.000000
f 225/661/661 226/662/662 228/663/663
f 228/663/663 226/662/662 227/664/664
f 229/665/665 225/666/666 230/667/667
f 230/667/667 225/666/666 228/668/668
f 231/669/669 229/670/670 232/671/671
f 232/671/671 229/670/670 230/672/672
f 226/673/673 231/674/674 227/675/675
f 227/675/675 231/674/674 232/676/676
f 227/677/677 232/678/678 228/679/679
f 228/679/679 232/678/678 230/680/680
f 231/681/681 226/682/682 229/683/683
f 229/683/683 226/682/682 225/684/684
g Cuerpo18

v -7.214286 7.500000 4.000000
v -7.214286 -2.800000 4.000000
v -7.214286 -2.800000 3.700000
v -7.214286 7.500000 3.700000
v -7.714286 7.500000 4.000000
v -7.714286 7.500000 3.700000
v -7.714286 -2.800000 4.000000
v -7.714286 -2.800000 3.700000
vt 0.000000 0.000000 0.000000
vt 10.300000 0.000000 0.000000
vt 0.000000 0.300000 0.000000
vt 10.300000 0.300000 0.000000
vt 0.000000 0.000000 0.000000
vt 0.500000 0.000000 0.000000
vt 0.000000 0.300000 0.000000
vt 0.500000 0.300000 0.000000
vt 0.000000 0.000000 0.000000
vt 10.300000 0.000000 0.000000
vt 0.000000 0.300000 0.000000
vt 10.300000 0.300000 0.000000
vt 0.000000 0.000000 0.000000
vt 0.500000 0.000000 0.000000
vt 0.000000 0.300000 0.000000
vt 0.500000 0.300000 0.000000
vt -0.250000 -5.150000 0.000000
vt 0.250000 -5.150000 0.000000
vt -0.250000 5.150000 0.000000
vt 0.250000 5.150000 0.000000
vt 0.250000 5.150000 0.000000
vt -0.250000 5.150000 0.000000
vt 0.250000 -5.150000 0.000000
vt -0.250000 -5.150000 0.000000
vn 1.000000 0.000000 0.000000
vn 1.000000 0.000000 0.000000
vn 1.000000 0.000000 0.000000
vn 1.000000 0.000000 0.000000
vn -0.000000 1.000000 0.000000
vn -0.000000 1.000000 0.000000
vn -0.000000 1.000000 0.000000
vn -0.000000 1.000000 0.000000
vn -1.000000 0.000000 0.000000
vn -1.000000 0.000000 0.000000
vn -1.000000 0.000000 0.000000
vn -1.000000 0.000000 0.000000
vn -0.000000 -1.000000 -0.000000
vn -0.000000 -1.000000 -0.000000
vn -0.000000 -1.000000 -0.000000
vn -0.000000 -1.000000 -0.000000
vn 0.000000 0.000000 -1.000000
vn 0.000000 0.000000 -1.000000
vn 0.000000 0.000000 -1.000000
vn 0.000000 0.000000 -1.000000
vn -0.000000 -0.000000 1.000000
vn -0.000000 -0.000000 1.000000
vn -0.000000 -0.000000 1.000000
vn -0.000000 -0.000000 1.000000
f 233/685/685 234/686/686 236/687/687
f 236/687/687 234/686/686 235/688/688
f 237/689/689 233/690/690 238/691/691
f 238/691/691 233/690/690 236/692/692
f 239/693/693 237/694/694 240/695/695
f 240/695/695 237/694/694 238/696/696
f 234/697/697 239/698/698 235/699/699
f 235/699/699 239/698/698 240/700/700
f 235/701/701 240/702/702 236/703/703
f 236/703/703 240/702/702 238/704/704
f 239/705/705 234/706/706 237/707/707
f 237/707/707 234/706/706 233/708/708
g Cuerpo19

v -2.642857 7.500000 4.000000
v -2.642857 -2.800000 4.000000
v -2.642857 -2.800000 3.700000
v -2.642857 7.500000 3.700000
v -3.142857 7.500000 4.000000
v -3.142857 7.500000 3.700000
v -3.142857 -2.800000 4.000000
v -3.142857 -2.800000 3.700000
vt 0.000000 0.000000 0.000000
vt 10.300000 0.000000 0.000000
vt 0.000000 0.300000 0.000000
vt 10.300000 0.300000 0.000000
vt 0.000000 0.000000 0.000000
vt 0.500000 0.000000 0.000000
vt 0.000000 0.300000 0.000000
vt 0.500000 0.300000 0.000000
vt 0.000000 0.000000 0.000000
vt 10.300000 0.000000 0.000000
vt 0.000000 0.300000 0.000000
vt 10.300000 0.300000 0.000000
vt 0.000000 0.000000 0.000000
vt 0.500000 0.000000 0.000000
vt 0.000000 0.300000 0.000000
vt 0.500000 0.300000 0.000000
vt -0.250000 -5.150000 0.000000
vt 0.250000 -5.150000 0.000000
vt -0.250000 5.150000 0.000000
vt 0.250000 5.150000 0.000000
vt 0.250000 5.150000 0.000000
vt -0.250000 5.150000 0.000000
vt 0.250000 -5.150000 0.000000
vt -0.250000 -5.150000 0.000000
vn 1.000000 0.000000 0.000000
vn 1.000000 0.000000 0.000000
vn 1.000000 0.000000 0.000000
vn 1.000000 0.000000 0.000000
vn -0.000000 1.000000 0.000000
vn -0.000000 1.000000 0.000000
vn -0.000000 1.000000 0.000000
vn -0.000000 1.000000 0.000000
vn -1.000000 0.000000 0.000000
vn -1.000000 0.000000 0.000000
vn -1.000000 0.000000 0.000000
vn -1.000000 0.000000 0.000000
vn -0.000000 -1.000000 -0.000000
vn -0.000000 -1.000000 -0.000000
vn -0.000000 -1.000000 -0.000000
vn -0.000000 -1.000000 -0.000000
vn 0.000000 0.000000 -1.000000
vn 0.000000 0.000000 -1.000000
vn 0.000000 0.000000 -1.000000
vn 0.000000 0.000000 -1.000000
vn -0.000000 -0.000000 1.000000
vn -0.000000 -0.000000 1.000000
vn -0.000000 -0.000000 1.000000
vn -0.000000 -0.000000 1.000000
f 241/709/709 242/710/710 244/711/711
f 244/711/711 242/710/710 243/712/712
f 245/713/713 241/714/714 246/715/715
f 246/715/715 241/714/714 244/716/716
f 247/717/717 245/718/718 248/719/719
f 248/719/719 245/718/718 246/720/720
f 242/721/721 247/722/722 243/723/723
f 243/723/723 247/722/722 248/724/724
f 243/725/725 248/726/726 244/727/727
f 244/727/727 248/726/726 246/728/728
f 247/729/729 242/730/730 245/731/731
f 245/731/731 242/730/730 241/732/732
g Cuerpo20

v 9.847547 -2.285714 4.000000
v 9.847547 -2.785714 4.000000
v 9.847547 -2.785714 3.700000
v 9.847547 -2.285714 3.700000
v -0.999241 -2.342536 4.000000
v -0.999241 -2.342536 3.700000
v -0.998284 -2.848525 4.000000
v -0.998284 -2.848525 3.700000
vt -0.000000 0.000000 0.000000
vt 0.500000 0.000000 0.000000
vt 0.000000 0.300000 0.000000
vt 0.500000 0.300000 0.000000
vt 0.000000 0.000000 0.000000
vt 10.846937 0.000000 0.000000
vt 0.000000 0.300000 0.000000
vt 10.846937 0.300000 0.000000
vt 0.000000 0.000000 0.000000
vt 0.505991 0.000000 0.000000
vt 0.000000 0.300000 0.000000
vt 0.505991 0.300000 0.000000
vt -0.000000 0.000000 0.000000
vt 10.846013 -0.000000 0.000000
vt 0.000000 0.300000 0.000000
vt 10.846013 0.300000 0.000000
vt 5.422437 -0.281406 0.000000
vt 5.423394 0.224584 0.000000
vt -5.423394 -0.218594 0.000000
vt -5.423394 0.281406 0.000000
vt 5.422437 0.281406 0.000000
vt -5.423394 0.218594 0.000000
vt 5.423394 -0.224584 0.000000
vt -5.423394 -0.281406 0.000000
vn 1.000000 -0.000000 0.000000
vn 1.000000 -0.000000 0.000000
vn 1.000000 -0.000000 0.000000
vn 1.000000 -0.000000 0.000000
vn -0.005238 0.999986 0.000000
vn -0.005238 0.999986 0.000000
vn -0.005238 0.999986 0.000000
vn -0.005238 0.999986 0.000000
vn -0.999998 -0.001893 -0.000000
vn -0.999998 -0.001893 -0.000000
vn -0.999998 -0.001893 -0.000000
vn -0.999998 -0.001893 -0.000000
vn 0.005791 -0.999983 0.000000
vn 0.005791 -0.999983 0.000000
vn 0.005791 -0.999983 0.000000
vn 0.005791 -0.999983 0.000000
vn 0.000000 0.000000 -1.000000
vn 0.000000 0.000000 -1.000000
vn 0.000000 0.000000 -1.000000
vn 0.000000 0.000000 -1.000000
vn -0.000000 -0.000000 1.000000
vn -0.000000 -0.000000 1.000000
vn -0.000000 -0.000000 1.000000
vn -0.000000 -0.000000 1.000000
f 249/733/733 250/734/734 252/735/735
f 252/735/735 250/734/734 251/736/736
f 253/737/737 249/738/738 254/739/739
f 254/739/739 249/738/738 252/740/740
f 255/741/741 253/742/742 256/743/743
f 256/743/743 253/742/742 254/744/744
f 250/745/745 255/746/746 251/747/747
f 251/747/747 255/746/746 256/748/748
f 256/749/749 254/750/750 251/751/751
f 251/751/751 254/750/750 252/752/752
f 255/753/753 250/754/754 253/755/755
f 253/755/755 250/754/754 249/756/756
g Cuerpo21

v 9.847547 -6.857143 4.000000
v 9.847547 -7.357143 4.000000
v 9.847547 -7.357143 3.700000
v 9.847547 -6.857143 3.700000
v 3.000000 -6.857143 4.000000
v 3.000000 -6.857143 3.700000
v 3.000000 -7.357143 4.000000
v 3.000000 -7.357143 3.700000
vt -0.000000 0.000000 0.000000
vt 0.500000 0.000000 0.000000
vt 0.000000 0.300000 0.000000
vt 0.500000 0.300000 0.000000
vt 0.000000 0.000000 0.000000
vt 6.847547 0.000000 0.000000
vt 0.000000 0.300000 0.000000
vt 6.847547 0.300000 0.000000
vt 0.000000 0.000000 0.000000
vt 0.500000 0.000000 0.000000
vt 0.000000 0.300000 0.000000
vt 0.500000 0.300000 0.000000
vt -0.000000 0.000000 0.000000
vt 6.847547 0.000000 0.000000
vt 0.000000 0.300000 0.000000
vt 6.847547 0.300000 0.000000
vt -3.423774 -0.250000 0.000000
vt 3.423774 -0.250000 0.000000
vt -3.423774 0.250000 0.000000
vt 3.423774 0.250000 0.000000
vt 3.423774 0.250000 0.000000
vt -3.423774 0.250000 0.000000
vt 3.423774 -0.250000 0.000000
vt -3.423774 -0.250000 0.000000
vn 1.000000 -0.000000 0.000000
vn 1.000000 -0.000000 0.000000
vn 1.000000 -0.000000 0.000000
vn 1.000000 -0.000000 0.000000
vn 0.000000 1.000000 0.000000
vn 0.000000 1.000000 0.000000
vn 0.000000 1.000000 0.000000
vn 0.000000 1.000000 0.000000
vn -1.000000 -0.000000 -0.000000
vn -1.000000 -0.000000 -0.000000
vn -1.000000 -0.000000 -0.000000
vn -1.000000 -0.000000 -0.000000
vn 0.000000 -1.000000 0.000000
vn 0.000000 -1.000000 0.000000
vn 0.000000 -1.000000 0.000000
vn 0.000000 -1.000000 0.000000
vn 0.000000 0.000000 -1.000000
vn 0.000000 0.000000 -1.000000
vn 0.000000 0.000000 -1.000000
vn 0.000000 0.000000 -1.000000
vn -0.000000 -0.000000 1.000000
vn -0.000000 -0.000000 1.000000
vn -0.000000 -0.000000 1.000000
vn -0.000000 -0.000000 1.000000
f 257/757/757 258/758/758 260/759/759
f 260/759/759 258/758/758 259/760/760
f 261/761/761 257/762/762 262/763/763
f 262/763/763 257/762/762 260/764/764
f 263/765/765 261/766/766 264/767/767
f 264/767/767 261/766/766 262/768/768
f 258/769/769 263/770/770 259/771/771
f 259/771/771 263/770/770 264/772/772
f 259/773/773 264/774/774 260/775/775
f 260/775/775 264/774/774 262/776/776
f 263/777/777 258/778/778 261/779/779
f 261/779/779 258/778/778 257/780/780
g Cuerpo22

v 9.847547 -4.571429 4.000000
v 9.847547 -5.071429 4.000000
v 9.847547 -5.071429 3.700000
v 9.847547 -4.571429 3.700000
v 3.000000 -4.571429 4.000000
v 3.000000 -4.571429 3.700000
v 3.000000 -5.071429 4.000000
v 3.000000 -5.071429 3.700000
vt -0.000000 0.000000 0.000000
vt 0.500000 0.000000 0.000000
vt 0.000000 0.300000 0.000000
vt 0.500000 0.300000 0.000000
vt 0.000000 0.000000 0.000000
vt 6.847547 0.000000 0.000000
vt 0.000000 0.300000 0.000000
vt 6.847547 0.300000 0.000000
vt 0.000000 0.000000 0.000000
vt 0.500000 0.000000 0.000000
vt 0.000000 0.300000 0.000000
vt 0.500000 0.300000 0.000000
vt -0.000000 0.000000 0.000000
vt 6.847547 0.000000 0.000000
vt 0.000000 0.300000 0.000000
vt 6.847547 0.300000 0.000000
vt -3.423774 -0.250000 0.000000
vt 3.423774 -0.250000 0.000000
vt -3.423774 0.250000 0.000000
vt 3.423774 0.250000 0.000000
vt 3.423774 0.250000 0.000000
vt -3.423774 0.250000 0.000000
vt 3.423774 -0.250000 0.000000
vt -3.423774 -0.250000 0.000000
vn 1.000000 -0.000000 0.000000
vn 1.000000 -0.000000 0.000000
vn 1.000000 -0.000000 0.000000
vn 1.000000 -0.000000 0.000000
vn 0.000000 1.000000 0.000000
vn 0.000000 1.000000 0.000000
vn 0.000000 1.000000 0.000000
vn 0.000000 1.000000 0.000000
vn -1.000000 -0.000000 -0.000000
vn -1.000000 -0.000000 -0.000000
vn -1.000000 -0.000000 -0.000000
vn -1.000000 -0.000000 -0.000000
vn 0.000000 -1.000000 0.000000
vn 0.000000 -1.000000 0.000000
vn 0.000000 -1.000000 0.000000
vn 0.000000 -1.000000 0.000000
vn 0.000000 0.000000 -1.000000
vn 0.000000 0.000000 -1.000000
vn 0.000000 0.000000 -1.000000
vn 0.000000 0.000000 -1.000000
vn -0.000000 -0.000000 1.000000
vn -0.000000 -0.000000 1.000000
vn -0.000000 -0.000000 1.000000
vn -0.000000 -0.000000 1.000000
f 265/781/781 266/782/782 268/783/783
f 268/783/783 266/782/782 267/784/784
f 269/785/785 265/786/786 270/787/787
f 270/787/787 265/786/786 268/788/788
f 271/789/789 269/790/790 272/791/791
f 272/791/791 269/790/790 270/792/792
f 266/793/793 271/794/794 267/795/795
f 267/795/795 271/794/794 272/796/796
f 267/797/797 272/798/798 268/799/799
f 268/799/799 272/798/798 270/800/800
f 271/801/801 266/802/802 269/803/803
f 269/803/803 266/802/802 265/804/804
g Cuerpo23

v 9.847547 0.000000 4.000000
v 9.847547 -0.500000 4.000000
v 9.847547 -0.500000 3.700000
v 9.847547 0.000000 3.700000
v -1.000000 -0.000000 4.000000
v -1.000000 -0.000000 3.700000
v -1.000000 -0.500000 4.000000
v -1.000000 -0.500000 3.700000
vt -0.000000 0.000000 0.000000
vt 0.500000 0.000000 0.000000
vt 0.000000 0.300000 0.000000
vt 0.500000 0.300000 0.000000
vt 0.000000 0.000000 0.000000
vt 10.847547 0.000000 0.000000
vt 0.000000 0.300000 0.000000
vt 10.847547 0.300000 0.000000
vt 0.000000 0.000000 0.000000
vt 0.500000 0.000000 0.000000
vt 0.000000 0.300000 0.000000
vt 0.500000 0.300000 0.000000
vt -0.000000 0.000000 0.000000
vt 10.847547 -0.000000 0.000000
vt 0.000000 0.300000 0.000000
vt 10.847547 0.300000 0.000000
vt -5.423774 -0.250000 0.000000
vt 5.423774 -0.250000 0.000000
vt -5.423774 0.250000 0.000000
vt 5.423774 0.250000 0.000000
vt 5.423774 0.250000 0.000000
vt -5.423774 0.250000 0.000000
vt 5.423774 -0.250000 0.000000
vt -5.423774 -0.250000 0.000000
vn 1.000000 -0.000000 0.000000
vn 1.000000 -0.000000 0.000000
vn 1.000000 -0.000000 0.000000
vn 1.000000 -0.000000 0.000000
vn -0.000000 1.000000 0.000000
vn -0.000000 1.000000 0.000000
vn -0.000000 1.000000 0.000000
vn -0.000000 1.000000 0.000000
vn -1.000000 0.000000 0.000000
vn -1.000000 0.000000 0.000000
vn -1.000000 0.000000 0.000000
vn -1.000000 0.000000 0.000000
vn 0.000000 -1.000000 0.000000
vn 0.000000 -1.000000 0.000000
vn 0.000000 -1.000000 0.000000
vn 0.000000 -1.000000 0.000000
vn 0.000000 0.000000 -1.000000
vn 0.000000 0.000000 -1.000000
vn 0.000000 0.000000 -1.000000
vn 0.000000 0.000000 -1.000000
vn -0.000000 -0.000000 1.000000
vn -0.000000 -0.000000 1.000000
vn -0.000000 -0.000000 1.000000
vn -0.000000 -0.000000 1.000000
f 273/805/805 274/806/806 276/807/807
f 276/807/807 274/806/806 275/808/808
f 277/809/809 273/810/810 278/811/811
f 278/811/811 273/810/810 276/812/812
f 279/813/813 277/814/814 280/815/815
f 280/815/815 277/814/814 278/816/816
f 274/817/817 279/818/818 275/819/819
f 275/819/819 279/818/818 280/820/820
f 275/821/821 280/822/822 276/823/823
f 276/823/823 280/822/822 278/824/824
f 279/825/825 274/826/826 277/827/827
f 277/827/827 274/826/826 273/828/828
g Cuerpo24

v -4.928571 7.500000 4.000000
v -4.928571 -2.800000 4.000000
v -4.928571 -2.800000 3.700000
v -4.928571 7.500000 3.700000
v -5.428571 7.500000 4.000000
v -5.428571 7.500000 3.700000
v -5.428571 -2.800000 4.000000
v -5.428571 -2.800000 3.700000
vt 0.000000 0.000000 0.000000
vt 10.300000 0.000000 0.000000
vt 0.000000 0.300000 0.000000
vt 10.300000 0.300000 0.000000
vt 0.000000 0.000000 0.000000
vt 0.500000 0.000000 0.000000
vt 0.000000 0.300000 0.000000
vt 0.500000 0.300000 0.000000
vt 0.000000 0.000000 0.000000
vt 10.300000 0.000000 0.000000
vt 0.000000 0.300000 0.000000
vt 10.300000 0.300000 0.000000
vt 0.000000 0.000000 0.000000
vt 0.500000 0.000000 0.000000
vt 0.000000 0.300000 0.000000
vt 0.500000 0.300000 0.000000
vt -0.250000 -5.150000 0.000000
vt 0.250000 -5.150000 0.000000
vt -0.250000 5.150000 0.000000
vt 0.250000 5.150000 0.000000
vt 0.250000 5.150000 0.000000
vt -0.250000 5.150000 0.000000
vt 0.250000 -5.150000 0.000000
vt -0.250000 -5.150000 0.000000
vn 1.000000 0.000000 0.000000
vn 1.000000 0.000000 0.000000
vn 1.000000 0.000000 0.000000
vn 1.000000 0.000000 0.000000
vn -0.000000 1.000000 0.000000
vn -0.000000 1.000000 0.000000
vn -0.000000 1.000000 0.000000
vn -0.000000 1.000000 0.000000
vn -1.000000 0.000000 0.000000
vn -1.000000 0.000000 0.000000
vn -1.000000 0.000000 0.000000
vn -1.000000 0.000000 0.000000
vn -0.000000 -1.000000 -0.000000
vn -0.000000 -1.000000 -0.000000
vn -0.000000 -1.000000 -0.000000
vn -0.000000 -1.000000 -0.000000
vn 0.000000 0.000000 -1.000000
vn 0.000000 0.000000 -1.000000
vn 0.000000 0.000000 -1.000000
vn 0.000000 0.000000 -1.000000
vn -0.000000 -0.000000 1.000000
vn -0.000000 -0.000000 1.000000
vn -0.000000 -0.000000 1.000000
vn -0.000000 -0.000000 1.000000
f 281/829/829 282/830/830 284/831/831
f 284/831/831 282/830/830 283/832/832
f 285/833/833 281/834/834 286/835/835
f 286/835/835 281/834/834 284/836/836
f 287/837/837 285/838/838 288/839/839
f 288/839/839 285/838/838 286/840/840
f 282/841/841 287/842/842 283/843/843
f 283/843/843 287/842/842 288/844/844
f 283/845/845 288/846/846 284/847/847
f 284/847/847 288/846/846 286/848/848
f 287/849/849 282/850/850 285/851/851
f 285/851/851 282/850/850 281/852/852
g Cuerpo25

v -9.500000 7.500000 4.000000
v -9.500000 -2.800000 4.000000
v -9.500000 -2.800000 3.700000
v -9.500000 7.500000 3.700000
v -10.000000 7.500000 4.000000
v -10.000000 7.500000 3.700000
v -10.000000 -2.800000 4.000000
v -10.000000 -2.800000 3.700000
vt 0.000000 0.000000 0.000000
vt 10.300000 0.000000 0.000000
vt 0.000000 0.300000 0.000000
vt 10.300000 0.300000 0.000000
vt 0.000000 0.000000 0.000000
vt 0.500000 0.000000 0.000000
vt 0.000000 0.300000 0.000000
vt 0.500000 0.300000 0.000000
vt 0.000000 0.000000 0.000000
vt 10.300000 0.000000 0.000000
vt 0.000000 0.300000 0.000000
vt 10.300000 0.300000 0.000000
vt 0.000000 0.000000 0.000000
vt 0.500000 0.000000 0.000000
vt 0.000000 0.300000 0.000000
vt 0.500000 0.300000 0.000000
vt -0.250000 -5.150000 0.000000
vt 0.250000 -5.150000 0.000000
vt -0.250000 5.150000 0.000000
vt 0.250000 5.150000 0.000000
vt 0.250000 5.150000 0.000000
vt -0.250000 5.150000 0.000000
vt 0.250000 -5.150000 0.000000
vt -0.250000 -5.150000 0.000000
vn 1.000000 0.000000 0.000000
vn 1.000000 0.000000 0.000000
vn 1.000000 0.000000 0.000000
vn 1.000000 0.000000 0.000000
vn -0.000000 1.000000 0.000000
vn -0.000000 1.000000 0.000000
vn -0.000000 1.000000 0.000000
vn -0.000000 1.000000 0.000000
vn -1.000000 0.000000 0.000000
vn -1.000000 0.000000 0.000000
vn -1.000000 0.000000 0.000000
vn -1.000000 0.000000 0.000000
vn -0.000000 -1.000000 -0.000000
vn -0.000000 -1.000000 -0.000000
vn -0.000000 -1.000000 -0.000000
vn -0.000000 -1.000000 -0.000000
vn 0.000000 0.000000 -1.000000
vn 0.000000 0.000000 -1.000000
vn 0.000000 0.000000 -1.000000
vn 0.000000 0.000000 -1.000000
vn -0.000000 -0.000000 1.000000
vn -0.000000 -0.000000 1.000000
vn -0.000000 -0.000000 1.000000
vn -0.000000 -0.000000 1.000000
f 289/853/853 290/854/854 292/855/855
f 292/855/855 290/854/854 291/856/856
f 293/857/857 289/858/858 294/859/859
f 294/859/859 289/858/858 292/860/860
f 295/861/861 293/862/862 296/863/863
f 296/863/863 293/862/862 294/864/864
f 290/865/865 295/866/866 291/867/867
f 291/867/867 295/866/866 296/868/868
f 291/869/869 296/870/870 292/871/871
f 292/871/871 296/870/870 294/872/872
f 295/873/873 290/874/874 293/875/875
f 293/875/875 290/874/874 289/876/876
g Cuerpo26

v -6.071429 7.500000 4.000000
v -6.071429 -2.800000 4.000000
v -6.071429 -2.800000 3.700000
v -6.071429 7.500000 3.700000
v -6.571429 7.500000 4.000000
v -6.571429 7.500000 3.700000
v -6.571429 -2.800000 4.000000
v -6.571429 -2.800000 3.700000
vt 0.000000 0.000000 0.000000
vt 10.300000 0.000000 0.000000
vt 0.000000 0.300000 0.000000
vt 10.300000 0.300000 0.000000
vt 0.000000 0.000000 0.000000
vt 0.500000 0.000000 0.000000
vt 0.000000 0.300000 0.000000
vt 0.500000 0.300000 0.000000
vt 0.000000 0.000000 0.000000
vt 10.300000 0.000000 0.000000
vt 0.000000 0.300000 0.000000
vt 10.300000 0.300000 0.000000
vt 0.000000 0.000000 0.000000
vt 0.500000 0.000000 0.000000
vt 0.000000 0.300000 0.000000
vt 0.500000 0.300000 0.000000
vt -0.250000 -5.150000 0.000000
vt 0.250000 -5.150000 0.000000
vt -0.250000 5.150000 0.000000
vt 0.250000 5.150000 0.000000
vt 0.250000 5.150000 0.000000
vt -0.250000 5.150000 0.000000
vt 0.250000 -5.150000 0.000000
vt -0.250000 -5.150000 0.000000
vn 1.000000 0.000000 0.000000
vn 1.000000 0.000000 0.000000
vn 1.000000 0.000000 0.000000
vn 1.000000 0.000000 0.000000
vn -0.000000 1.000000 0.000000
vn -0.000000 1.000000 0.000000
vn -0.000000 1.000000 0.000000
vn -0.000000 1.000000 0.000000
vn -1.000000 0.000000 0.000000
vn -1.000000 0.000000 0.000000
vn -1.000000 0.000000 0.000000
vn -1.000000 0.000000 0.000000
vn -0.000000 -1.000000 -0.000000
vn -0.000000 -1.000000 -0.000000
vn -0.000000 -1.000000 -0.000000
vn -0.000000 -1.000000 -0.000000
vn 0.000000 0.000000 -1.000000
vn 0.000000 0.000000 -1.000000
vn 0.000000 0.000000 -1.000000
vn 0.000000 0.000000 -1.000000
vn -0.000000 -0.000000 1.000000
vn -0.000000 -0.000000 1.000000
vn -0.000000 -0.000000 1.000000
vn -0.000000 -0.000000 1.000000
f 297/877/877 298/878/878 300/879/879
f 300/879/879 298/878/878 299/880/880
f 301/881/881 297/882/882 302/883/883
f 302/883/883 297/882/882 300/884/884
f 303/885/885 301/886/886 304/887/887
f 304/887/887 301/886/886 302/888/888
f 298/889/889 303/890/890 299/891/891
f 299/891/891 303/890/890 304/892/892
f 299/893/893 304/894/894 300/895/895
f 300/895/895 304/894/894 302/896/896
f 303/897/897 298/898/898 301/899/899
f 301/899/899 298/898/898 297/900/900
g Cuerpo27

v -2.000000 7.500000 4.000000
v -1.500000 7.500000 4.000000
v -1.500000 7.500000 3.700000
v -2.000000 7.500000 3.700000
v -2.000000 -2.800000 4.000000
v -2.000000 -2.800000 3.700000
v -1.500000 -2.800000 4.000000
v -1.500000 -2.800000 3.700000
vt 0.000000 0.000000 0.000000
vt 0.500000 0.000000 0.000000
vt 0.000000 0.300000 0.000000
vt 0.500000 0.300000 0.000000
vt 0.000000 0.000000 0.000000
vt 10.300000 0.000000 0.000000
vt 0.000000 0.300000 0.000000
vt 10.300000 0.300000 0.000000
vt 0.000000 0.000000 0.000000
vt 0.500000 0.000000 0.000000
vt 0.000000 0.300000 0.000000
vt 0.500000 0.300000 0.000000
vt 0.000000 0.000000 0.000000
vt 10.300000 0.000000 0.000000
vt 0.000000 0.300000 0.000000
vt 10.300000 0.300000 0.000000
vt -0.250000 -5.150000 0.000000
vt 0.250000 -5.150000 0.000000
vt -0.250000 5.150000 0.000000
vt 0.250000 5.150000 0.000000
vt -0.250000 -5.150000 0.000000
vt 0.250000 -5.150000 0.000000
vt -0.250000 5.150000 0.000000
vt 0.250000 5.150000 0.000000
vn -0.000000 1.000000 0.000000
vn -0.000000 1.000000 0.000000
vn -0.000000 1.000000 0.000000
vn -0.000000 1.000000 0.000000
vn -1.000000 0.000000 0.000000
vn -1.000000 0.000000 0.000000
vn -1.000000 0.000000 0.000000
vn -1.000000 0.000000 0.000000
vn -0.000000 -1.000000 -0.000000
vn -0.000000 -1.000000 -0.000000
vn -0.000000 -1.000000 -0.000000
vn -0.000000 -1.000000 -0.000000
vn 1.000000 0.000000 0.000000
vn 1.000000 0.000000 0.000000
vn 1.000000 0.000000 0.000000
vn 1.000000 0.000000 0.000000
vn 0.000000 0.000000 -1.000000
vn 0.000000 0.000000 -1.000000
vn 0.000000 0.000000 -1.000000
vn 0.000000 0.000000 -1.000000
vn -0.000000 -0.000000 1.000000
vn -0.000000 -0.000000 1.000000
vn -0.000000 -0.000000 1.000000
vn -0.000000 -0.000000 1.000000
f 305/901/901 306/902/902 308/903/903
f 308/903/903 306/902/902 307/904/904
f 309/905/905 305/906/906 310/907/907
f 310/907/907 305/906/906 308/908/908
f 311/909/909 309/910/910 312/911/911
f 312/911/911 309/910/910 310/912/912
f 306/913/913 311/914/914 307/915/915
f 307/915/915 311/914/914 312/916/916
f 312/917/917 310/918/918 307/919/919
f 307/919/919 310/918/918 308/920/920
f 306/921/921 305/922/922 311/923/923
f 311/923/923 305/922/922 309/924/924
g Cuerpo28

v 9.847547 -3.428571 4.000000
v 9.847547 -3.928571 4.000000
v 9.847547 -3.928571 3.700000
v 9.847547 -3.428571 3.700000
v 3.000000 -3.428571 4.000000
v 3.000000 -3.428571 3.700000
v 3.000000 -3.928571 4.000000
v 3.000000 -3.928571 3.700000
vt -0.000000 0.000000 0.000000
vt 0.500000 0.000000 0.000000
vt 0.000000 0.300000 0.000000
vt 0.500000 0.300000 0.000000
vt 0.000000 0.000000 0.000000
vt 6.847547 0.000000 0.000000
vt 0.000000 0.300000 0.000000
vt 6.847547 0.300000 0.000000
vt 0.000000 0.000000 0.000000
vt 0.500000 0.000000 0.000000
vt 0.000000 0.300000 0.000000
vt 0.500000 0.300000 0.000000
vt -0.000000 0.000000 0.000000
vt 6.847547 0.000000 0.000000
vt 0.000000 0.300000 0.000000
vt 6.847547 0.300000 0.000000
vt -3.423774 -0.250000 0.000000
vt 3.423774 -0.250000 0.000000
vt -3.423774 0.250000 0.000000
vt 3.423774 0.250000 0.000000
vt 3.423774 0.250000 0.000000
vt -3.423774 0.250000 0.000000
vt 3.423774 -0.250000 0.000000
vt -3.423774 -0.250000 0.000000
vn 1.000000 -0.000000 0.000000
vn 1.000000 -0.000000 0.000000
vn 1.000000 -0.000000 0.000000
vn 1.000000 -0.000000 0.000000
vn 0.000000 1.000000 0.000000
vn 0.000000 1.000000 0.000000
vn 0.000000 1.000000 0.000000
vn 0.000000 1.000000 0.000000
vn -1.000000 -0.000000 -0.000000
vn -1.000000 -0.000000 -0.000000
vn -1.000000 -0.000000 -0.000000
vn -1.000000 -0.000000 -0.000000
vn 0.000000 -1.000000 0.000000
vn 0.000000 -1.000000 0.000000
vn 0.000000 -1.000000 0.000000
vn 0.000000 -1.000000 0.000000
vn 0.000000 0.000000 -1.000000
vn 0.000000 0.000000 -1.000000
vn 0.000000 0.000000 -1.000000
vn 0.000000 0.000000 -1.000000
vn -0.000000 -0.000000 1.000000
vn -0.000000 -0.000000 1.000000
vn -0.000000 -0.000000 1.000000
vn -0.000000 -0.000000 1.000000
f 313/925/925 314/926/926 316/927/927
f 316/927/927 314/926/926 315/928/928
f 317/929/929 313/930/930 318/931/931
f 318/931/931 313/930/930 316/932/932
f 319/933/933 317/934/934 320/935/935
f 320/935/935 317/934/934 318/936/936
f 314/937/937 319/938/938 315/939/939
f 315/939/939 319/938/938 320/940/940
f 315/941/941 320/942/942 316/943/943
f 316/943/943 320/942/942 318/944/944
f 319/945/945 314/946/946 317/947/947
f 317/947/947 314/946/946 313/948/948
g Cuerpo29

v 3.000000 -8.500000 4.000000
v 3.000000 -8.000000 4.000000
v 3.000000 -8.000000 3.700000
v 3.000000 -8.500000 3.700000
v 9.847547 -8.500000 4.000000
v 9.847547 -8.500000 3.700000
v 9.847547 -8.000000 4.000000
v 9.847547 -8.000000 3.700000
vt 0.000000 0.000000 0.000000
vt 0.500000 0.000000 0.000000
vt 0.000000 0.300000 0.000000
vt 0.500000 0.300000 0.000000
vt -0.000000 0.000000 0.000000
vt 6.847547 0.000000 0.000000
vt 0.000000 0.300000 0.000000
vt 6.847547 0.300000 0.000000
vt -0.000000 0.000000 0.000000
vt 0.500000 0.000000 0.000000
vt 0.000000 0.300000 0.000000
vt 0.500000 0.300000 0.000000
vt 0.000000 0.000000 0.000000
vt 6.847547 0.000000 0.000000
vt 0.000000 0.300000 0.000000
vt 6.847547 0.300000 0.000000
vt 3.423774 0.250000 0.000000
vt -3.423774 0.250000 0.000000
vt 3.423774 -0.250000 0.000000
vt -3.423774 -0.250000 0.000000
vt -3.423774 -0.250000 0.000000
vt 3.423774 -0.250000 0.000000
vt -3.423774 0.250000 0.000000
vt 3.423774 0.250000 0.000000
vn -1.000000 -0.000000 -0.000000
vn -1.000000 -0.000000 -0.000000
vn -1.000000 -0.000000 -0.000000
vn -1.000000 -0.000000 -0.000000
vn 0.000000 -1.000000 0.000000
vn 0.000000 -1.000000 0.000000
vn 0.000000 -1.000000 0.000000
vn 0.000000 -1.000000 0.000000
vn 1.000000 -0.000000 0.000000
vn 1.000000 -0.000000 0.000000
vn 1.000000 -0.000000 0.000000
vn 1.000000 -0.000000 0.000000
vn 0.000000 1.000000 0.000000
vn 0.000000 1.000000 0.000000
vn 0.000000 1.000000 0.000000
vn 0.000000 1.000000 0.000000
vn 0.000000 0.000000 -1.000000
vn 0.000000 0.000000 -1.000000
vn 0.000000 0.000000 -1.000000
vn 0.000000 0.000000 -1.000000
vn -0.000000 -0.000000 1.000000
vn -0.000000 -0.000000 1.000000
vn -0.000000 -0.000000 1.000000
vn -0.000000 -0.000000 1.000000
f 321/949/949 322/950/950 324/951/951
f 324/951/951 322/950/950 323/952/952
f 325/953/953 321/954/954 326/955/955
f 326/955/955 321/954/954 324/956/956
f 327/957/957 325/958/958 328/959/959
f 328/959/959 325/958/958 326/960/960
f 322/961/961 327/962/962 323/963/963
f 323/963/963 327/962/962 328/964/964
f 323/965/965 328/966/966 324/967/967
f 324/967/967 328/966/966 326/968/968
f 327/969/969 322/970/970 325/971/971
f 325/971/971 322/970/970 321/972/972
# 328 vertices
# 972 texture params
# 972 normals
# 564 facets

# 29 groups
